<?xml version="1.0" encoding="UTF-8" standalone="no"?>
<svg width="474.133mm" height="79.7278mm"
 xmlns="http://www.w3.org/2000/svg" xmlns:xlink="http://www.w3.org/1999/xlink"  version="1.2" baseProfile="tiny">
<title>Qt SVG Document</title>
<desc>Generated with Qt</desc>
<defs>
</defs>
<g fill="none" stroke="black" stroke-width="1" fill-rule="evenodd" stroke-linecap="square" stroke-linejoin="bevel" >

<g fill="none" stroke="#000000" stroke-opacity="1" stroke-width="1" stroke-linecap="square" stroke-linejoin="bevel" transform="matrix(1,0,0,1,0,0)"
font-family="Noto Sans" font-size="10" font-weight="400" font-style="normal" 
>
</g>

<g fill="none" stroke="#000000" stroke-opacity="1" stroke-width="1" stroke-linecap="square" stroke-linejoin="bevel" transform="matrix(1,0,0,1,0,0)"
font-family="Noto Sans" font-size="10" font-weight="400" font-style="normal" 
>
</g>

<g fill="none" stroke="#000000" stroke-opacity="1" stroke-width="1" stroke-linecap="square" stroke-linejoin="bevel" transform="matrix(2,0,0,2,0.0028,226)"
font-family="Noto Sans" font-size="10" font-weight="400" font-style="normal" 
>
</g>

<g fill="#ffffff" fill-opacity="1" stroke="none" transform="matrix(2,0,0,2,0.0028,226)"
font-family="Noto Sans" font-size="10" font-weight="400" font-style="normal" 
>
<rect x="-0.0014" y="-113" width="671.772" height="113"/>
</g>

<g fill="none" stroke="#000000" stroke-opacity="1" stroke-width="1" stroke-linecap="square" stroke-linejoin="bevel" transform="matrix(2,0,0,2,0.0028,226)"
font-family="Noto Sans" font-size="10" font-weight="400" font-style="normal" 
>
</g>

<g fill="none" stroke="#000000" stroke-opacity="1" stroke-width="1" stroke-linecap="square" stroke-linejoin="bevel" transform="matrix(2,0,0,2,0.0028,226)"
font-family="Noto Sans" font-size="10" font-weight="400" font-style="normal" 
>
</g>

<g fill="none" stroke="#000000" stroke-opacity="1" stroke-width="1" stroke-linecap="square" stroke-linejoin="bevel" transform="matrix(2,0,0,2,0.0028,226)"
font-family="Noto Sans" font-size="10" font-weight="400" font-style="normal" 
>
</g>

<g fill="none" stroke="#000000" stroke-opacity="1" stroke-width="1" stroke-linecap="square" stroke-linejoin="bevel" transform="matrix(2,0,0,2,0.0028,226)"
font-family="Noto Sans" font-size="10" font-weight="400" font-style="normal" 
>
</g>

<g fill="none" stroke="#000000" stroke-opacity="1" stroke-width="1" stroke-linecap="square" stroke-linejoin="round" transform="matrix(2,0,0,2,0.0028,226)"
font-family="Noto Sans" font-size="10" font-weight="400" font-style="normal" 
>
<ellipse cx="308.78" cy="-72" rx="59.296" ry="17.5"/>
</g>

<g fill="none" stroke="#000000" stroke-opacity="1" stroke-width="1" stroke-linecap="square" stroke-linejoin="bevel" transform="matrix(2,0,0,2,0.0028,226)"
font-family="Noto Sans" font-size="10" font-weight="400" font-style="normal" 
>
</g>

<g fill="none" stroke="#000000" stroke-opacity="1" stroke-width="1" stroke-linecap="square" stroke-linejoin="bevel" transform="matrix(2,0,0,2,532.516,64)"
font-family="Noto Sans" font-size="10" font-weight="400" font-style="normal" 
>
</g>

<g fill="none" stroke="#000000" stroke-opacity="1" stroke-width="1" stroke-linecap="square" stroke-linejoin="bevel" transform="matrix(2,0,0,2,532.516,64)"
font-family="Noto Sans" font-size="10" font-weight="400" font-style="normal" 
>
</g>

<g fill="#000000" fill-opacity="1" stroke="#000000" stroke-opacity="1" stroke-width="1" stroke-linecap="square" stroke-linejoin="round" transform="matrix(2,0,0,2,532.516,64)"
font-family="Noto Sans" font-size="10" font-weight="400" font-style="normal" 
>
<path vector-effect="none" fill-rule="nonzero" d="M4.70312,4.71875 L1.25,14 L0.125,14 L3.59375,4.71875 L4.70312,4.71875 M8.73438,14.125 C7.72396,14.125 6.9401,13.8177 6.38281,13.2031 C5.82552,12.5885 5.54688,11.7031 5.54688,10.5469 C5.54688,9.38021 5.82812,8.48177 6.39062,7.85156 C6.95312,7.22135 7.76042,6.90625 8.8125,6.90625 C9.14583,6.90625 9.47917,6.9401 9.8125,7.00781 C10.1458,7.07552 10.4219,7.16667 10.6406,7.28125 L10.2812,8.23438 C9.69792,8.01562 9.19792,7.90625 8.78125,7.90625 C8.08333,7.90625 7.56771,8.125 7.23438,8.5625 C6.90104,9 6.73438,9.66146 6.73438,10.5469 C6.73438,11.3802 6.90104,12.0208 7.23438,12.4688 C7.56771,12.9167 8.0625,13.1406 8.71875,13.1406 C9.33333,13.1406 9.9375,13.0052 10.5312,12.7344 L10.5312,13.75 C10.0417,14 9.44271,14.125 8.73438,14.125 M18.2188,10.5 C18.2188,11.6354 17.9323,12.5234 17.3594,13.1641 C16.7865,13.8047 15.9896,14.125 14.9688,14.125 C14.3438,14.125 13.7865,13.9792 13.2969,13.6875 C12.8073,13.3958 12.4323,12.974 12.1719,12.4219 C11.9115,11.8698 11.7812,11.2292 11.7812,10.5 C11.7812,9.36458 12.0651,8.48177 12.6328,7.85156 C13.2005,7.22135 13.9948,6.90625 15.0156,6.90625 C15.9948,6.90625 16.7734,7.22917 17.3516,7.875 C17.9297,8.52083 18.2188,9.39583 18.2188,10.5 M12.9688,10.5 C12.9688,11.375 13.1406,12.0417 13.4844,12.5 C13.8281,12.9583 14.3333,13.1875 15,13.1875 C15.6667,13.1875 16.1745,12.9583 16.5234,12.5 C16.8724,12.0417 17.0469,11.375 17.0469,10.5 C17.0469,9.625 16.8724,8.96615 16.5234,8.52344 C16.1745,8.08073 15.6615,7.85938 14.9844,7.85938 C13.6406,7.85938 12.9688,8.73958 12.9688,10.5 M24.7812,14 L24.7812,9.54688 C24.7812,8.97396 24.6536,8.54948 24.3984,8.27344 C24.1432,7.9974 23.75,7.85938 23.2188,7.85938 C22.5,7.85938 21.9792,8.05729 21.6562,8.45312 C21.3333,8.84896 21.1719,9.49479 21.1719,10.3906 L21.1719,14 L20.0312,14 L20.0312,7.03125 L20.9531,7.03125 L21.125,7.98438 L21.1875,7.98438 C21.3958,7.64062 21.6953,7.375 22.0859,7.1875 C22.4766,7 22.9062,6.90625 23.375,6.90625 C24.2292,6.90625 24.8646,7.11198 25.2812,7.52344 C25.6979,7.9349 25.9062,8.58333 25.9062,9.46875 L25.9062,14 L24.7812,14 M30.3906,13.1875 C30.5365,13.1875 30.7083,13.1745 30.9062,13.1484 C31.1042,13.1224 31.2552,13.0885 31.3594,13.0469 L31.3594,13.9219 C31.2552,13.974 31.0911,14.0208 30.8672,14.0625 C30.6432,14.1042 30.4167,14.125 30.1875,14.125 C28.8229,14.125 28.1406,13.4062 28.1406,11.9688 L28.1406,7.92188 L27.1719,7.92188 L27.1719,7.375 L28.1562,6.92188 L28.625,5.4375 L29.2969,5.4375 L29.2969,7.03125 L31.3125,7.03125 L31.3125,7.92188 L29.2969,7.92188 L29.2969,11.9375 C29.2969,12.3438 29.3932,12.6536 29.5859,12.8672 C29.7786,13.0807 30.0469,13.1875 30.3906,13.1875 M36,6.90625 C36.3021,6.90625 36.5729,6.93229 36.8125,6.98438 L36.6719,8.03125 C36.4115,7.96875 36.1615,7.9375 35.9219,7.9375 C35.5573,7.9375 35.2161,8.03906 34.8984,8.24219 C34.5807,8.44531 34.3333,8.72656 34.1562,9.08594 C33.9792,9.44531 33.8906,9.84375 33.8906,10.2812 L33.8906,14 L32.75,14 L32.75,7.03125 L33.6875,7.03125 L33.8125,8.3125 L33.8594,8.3125 C34.1302,7.84375 34.4479,7.49219 34.8125,7.25781 C35.1771,7.02344 35.5729,6.90625 36,6.90625 M44.0312,10.5 C44.0312,11.6354 43.7448,12.5234 43.1719,13.1641 C42.599,13.8047 41.8021,14.125 40.7812,14.125 C40.1562,14.125 39.599,13.9792 39.1094,13.6875 C38.6198,13.3958 38.2448,12.974 37.9844,12.4219 C37.724,11.8698 37.5938,11.2292 37.5938,10.5 C37.5938,9.36458 37.8776,8.48177 38.4453,7.85156 C39.013,7.22135 39.8073,6.90625 40.8281,6.90625 C41.8073,6.90625 42.5859,7.22917 43.1641,7.875 C43.7422,8.52083 44.0312,9.39583 44.0312,10.5 M38.7812,10.5 C38.7812,11.375 38.9531,12.0417 39.2969,12.5 C39.6406,12.9583 40.1458,13.1875 40.8125,13.1875 C41.4792,13.1875 41.987,12.9583 42.3359,12.5 C42.6849,12.0417 42.8594,11.375 42.8594,10.5 C42.8594,9.625 42.6849,8.96615 42.3359,8.52344 C41.987,8.08073 41.474,7.85938 40.7969,7.85938 C39.4531,7.85938 38.7812,8.73958 38.7812,10.5 M46.9844,14 L45.8438,14 L45.8438,4.125 L46.9844,4.125 L46.9844,14 M53.875,16 L48.0469,16 L48.0469,15.1719 L53.875,15.1719 L53.875,16 M59.7031,14 L59.7031,9.54688 C59.7031,8.97396 59.5755,8.54948 59.3203,8.27344 C59.0651,7.9974 58.6719,7.85938 58.1406,7.85938 C57.4219,7.85938 56.901,8.05729 56.5781,8.45312 C56.2552,8.84896 56.0938,9.49479 56.0938,10.3906 L56.0938,14 L54.9531,14 L54.9531,7.03125 L55.875,7.03125 L56.0469,7.98438 L56.1094,7.98438 C56.3177,7.64062 56.6172,7.375 57.0078,7.1875 C57.3984,7 57.8281,6.90625 58.2969,6.90625 C59.151,6.90625 59.7865,7.11198 60.2031,7.52344 C60.6198,7.9349 60.8281,8.58333 60.8281,9.46875 L60.8281,14 L59.7031,14 M69.0312,10.5 C69.0312,11.6354 68.7448,12.5234 68.1719,13.1641 C67.599,13.8047 66.8021,14.125 65.7812,14.125 C65.1562,14.125 64.599,13.9792 64.1094,13.6875 C63.6198,13.3958 63.2448,12.974 62.9844,12.4219 C62.724,11.8698 62.5938,11.2292 62.5938,10.5 C62.5938,9.36458 62.8776,8.48177 63.4453,7.85156 C64.013,7.22135 64.8073,6.90625 65.8281,6.90625 C66.8073,6.90625 67.5859,7.22917 68.1641,7.875 C68.7422,8.52083 69.0312,9.39583 69.0312,10.5 M63.7812,10.5 C63.7812,11.375 63.9531,12.0417 64.2969,12.5 C64.6406,12.9583 65.1458,13.1875 65.8125,13.1875 C66.4792,13.1875 66.987,12.9583 67.3359,12.5 C67.6849,12.0417 67.8594,11.375 67.8594,10.5 C67.8594,9.625 67.6849,8.96615 67.3359,8.52344 C66.987,8.08073 66.474,7.85938 65.7969,7.85938 C64.4531,7.85938 63.7812,8.73958 63.7812,10.5 M73.3125,14.125 C72.4062,14.125 71.7031,13.8125 71.2031,13.1875 C70.7031,12.5625 70.4531,11.6771 70.4531,10.5312 C70.4531,9.38542 70.7031,8.49479 71.2031,7.85938 C71.7031,7.22396 72.4115,6.90625 73.3281,6.90625 C74.2552,6.90625 74.974,7.25 75.4844,7.9375 L75.5625,7.9375 C75.5521,7.84375 75.5365,7.66927 75.5156,7.41406 C75.4948,7.15885 75.4844,6.98958 75.4844,6.90625 L75.4844,4.125 L76.625,4.125 L76.625,14 L75.7031,14 L75.5312,13.0625 L75.4844,13.0625 C74.9948,13.7708 74.2708,14.125 73.3125,14.125 M73.5,13.1875 C74.1875,13.1875 74.6927,12.9974 75.0156,12.6172 C75.3385,12.237 75.5,11.6146 75.5,10.75 L75.5,10.5469 C75.5,9.57812 75.3359,8.88542 75.0078,8.46875 C74.6797,8.05208 74.1719,7.84375 73.4844,7.84375 C72.8906,7.84375 72.4349,8.07812 72.1172,8.54688 C71.7995,9.01562 71.6406,9.68229 71.6406,10.5469 C71.6406,11.4115 71.7995,12.0677 72.1172,12.5156 C72.4349,12.9635 72.8958,13.1875 73.5,13.1875 M81.7969,14.125 C80.7448,14.125 79.9219,13.8099 79.3281,13.1797 C78.7344,12.5495 78.4375,11.6771 78.4375,10.5625 C78.4375,9.44792 78.7135,8.5599 79.2656,7.89844 C79.8177,7.23698 80.5677,6.90625 81.5156,6.90625 C82.3906,6.90625 83.0885,7.1875 83.6094,7.75 C84.1302,8.3125 84.3906,9.07812 84.3906,10.0469 L84.3906,10.7344 L79.625,10.7344 C79.6458,11.526 79.8464,12.1276 80.2266,12.5391 C80.6068,12.9505 81.1458,13.1562 81.8438,13.1562 C82.2188,13.1562 82.5729,13.1224 82.9062,13.0547 C83.2396,12.987 83.6302,12.8594 84.0781,12.6719 L84.0781,13.6719 C83.6927,13.8385 83.3307,13.9557 82.9922,14.0234 C82.6536,14.0911 82.2552,14.125 81.7969,14.125 M81.5,7.84375 C80.9583,7.84375 80.5286,8.01823 80.2109,8.36719 C79.8932,8.71615 79.7031,9.20312 79.6406,9.82812 L83.1875,9.82812 C83.1771,9.18229 83.026,8.6901 82.7344,8.35156 C82.4427,8.01302 82.0312,7.84375 81.5,7.84375 "/>
</g>

<g fill="none" stroke="#000000" stroke-opacity="1" stroke-width="1" stroke-linecap="square" stroke-linejoin="bevel" transform="matrix(2,0,0,2,532.516,64)"
font-family="Noto Sans" font-size="10" font-weight="400" font-style="normal" 
>
</g>

<g fill="none" stroke="#000000" stroke-opacity="1" stroke-width="1" stroke-linecap="square" stroke-linejoin="bevel" transform="matrix(2,0,0,2,532.516,64)"
font-family="Noto Sans" font-size="10" font-weight="400" font-style="normal" 
>
</g>

<g fill="none" stroke="#000000" stroke-opacity="1" stroke-width="1" stroke-linecap="square" stroke-linejoin="bevel" transform="matrix(2,0,0,2,0.0028,226)"
font-family="Noto Sans" font-size="10" font-weight="400" font-style="normal" 
>
</g>

<g fill="none" stroke="#000000" stroke-opacity="1" stroke-width="1" stroke-linecap="square" stroke-linejoin="bevel" transform="matrix(2,0,0,2,0.0028,226)"
font-family="Noto Sans" font-size="10" font-weight="400" font-style="normal" 
>
</g>

<g fill="none" stroke="#000000" stroke-opacity="1" stroke-width="1" stroke-linecap="square" stroke-linejoin="bevel" transform="matrix(2,0,0,2,0.0028,226)"
font-family="Noto Sans" font-size="10" font-weight="400" font-style="normal" 
>
</g>

<g fill="none" stroke="#000000" stroke-opacity="1" stroke-width="1" stroke-linecap="square" stroke-linejoin="round" transform="matrix(2,0,0,2,0.0028,226)"
font-family="Noto Sans" font-size="10" font-weight="400" font-style="normal" 
>
<ellipse cx="547.18" cy="-72" rx="28.0973" ry="17.5"/>
</g>

<g fill="none" stroke="#000000" stroke-opacity="1" stroke-width="1" stroke-linecap="square" stroke-linejoin="bevel" transform="matrix(2,0,0,2,0.0028,226)"
font-family="Noto Sans" font-size="10" font-weight="400" font-style="normal" 
>
</g>

<g fill="none" stroke="#000000" stroke-opacity="1" stroke-width="1" stroke-linecap="square" stroke-linejoin="bevel" transform="matrix(2,0,0,2,1062.39,64)"
font-family="Noto Sans" font-size="10" font-weight="400" font-style="normal" 
>
</g>

<g fill="none" stroke="#000000" stroke-opacity="1" stroke-width="1" stroke-linecap="square" stroke-linejoin="bevel" transform="matrix(2,0,0,2,1062.39,64)"
font-family="Noto Sans" font-size="10" font-weight="400" font-style="normal" 
>
</g>

<g fill="#000000" fill-opacity="1" stroke="#000000" stroke-opacity="1" stroke-width="1" stroke-linecap="square" stroke-linejoin="round" transform="matrix(2,0,0,2,1062.39,64)"
font-family="Noto Sans" font-size="10" font-weight="400" font-style="normal" 
>
<path vector-effect="none" fill-rule="nonzero" d="M4.70312,4.71875 L1.25,14 L0.125,14 L3.59375,4.71875 L4.70312,4.71875 M7.46875,14 L4.82812,7.03125 L6.0625,7.03125 L7.53125,11.1406 C7.82292,11.9635 8.01042,12.5781 8.09375,12.9844 L8.14062,12.9844 C8.15104,12.9323 8.16667,12.8698 8.1875,12.7969 C8.20833,12.724 8.23177,12.6458 8.25781,12.5625 C8.28385,12.4792 8.44271,12.0052 8.73438,11.1406 L10.2188,7.03125 L11.4375,7.03125 L8.78125,14 L7.46875,14 M15.7812,6.90625 C16.0833,6.90625 16.3542,6.93229 16.5938,6.98438 L16.4531,8.03125 C16.1927,7.96875 15.9427,7.9375 15.7031,7.9375 C15.3385,7.9375 14.9974,8.03906 14.6797,8.24219 C14.362,8.44531 14.1146,8.72656 13.9375,9.08594 C13.7604,9.44531 13.6719,9.84375 13.6719,10.2812 L13.6719,14 L12.5312,14 L12.5312,7.03125 L13.4688,7.03125 L13.5938,8.3125 L13.6406,8.3125 C13.9115,7.84375 14.2292,7.49219 14.5938,7.25781 C14.9583,7.02344 15.3542,6.90625 15.7812,6.90625 M20.7344,14.125 C19.6823,14.125 18.8594,13.8099 18.2656,13.1797 C17.6719,12.5495 17.375,11.6771 17.375,10.5625 C17.375,9.44792 17.651,8.5599 18.2031,7.89844 C18.7552,7.23698 19.5052,6.90625 20.4531,6.90625 C21.3281,6.90625 22.026,7.1875 22.5469,7.75 C23.0677,8.3125 23.3281,9.07812 23.3281,10.0469 L23.3281,10.7344 L18.5625,10.7344 C18.5833,11.526 18.7839,12.1276 19.1641,12.5391 C19.5443,12.9505 20.0833,13.1562 20.7812,13.1562 C21.1562,13.1562 21.5104,13.1224 21.8438,13.0547 C22.1771,12.987 22.5677,12.8594 23.0156,12.6719 L23.0156,13.6719 C22.6302,13.8385 22.2682,13.9557 21.9297,14.0234 C21.5911,14.0911 21.1927,14.125 20.7344,14.125 M20.4375,7.84375 C19.8958,7.84375 19.4661,8.01823 19.1484,8.36719 C18.8307,8.71615 18.6406,9.20312 18.5781,9.82812 L22.125,9.82812 C22.1146,9.18229 21.9635,8.6901 21.6719,8.35156 C21.3802,8.01302 20.9688,7.84375 20.4375,7.84375 M28.3906,14.125 C27.4531,14.125 26.7344,13.7917 26.2344,13.125 L26.1562,13.125 L26.1875,13.375 C26.2188,13.7083 26.2344,14.0052 26.2344,14.2656 L26.2344,17.125 L25.0938,17.125 L25.0938,7.03125 L26.0312,7.03125 L26.1875,7.98438 L26.2344,7.98438 C26.5052,7.59896 26.8177,7.32292 27.1719,7.15625 C27.526,6.98958 27.9375,6.90625 28.4062,6.90625 C29.3125,6.90625 30.0156,7.21875 30.5156,7.84375 C31.0156,8.46875 31.2656,9.35417 31.2656,10.5 C31.2656,11.6354 31.013,12.5234 30.5078,13.1641 C30.0026,13.8047 29.2969,14.125 28.3906,14.125 M28.2031,7.85938 C27.5156,7.85938 27.0182,8.05469 26.7109,8.44531 C26.4036,8.83594 26.2448,9.44792 26.2344,10.2812 L26.2344,10.5 C26.2344,11.4479 26.3906,12.1328 26.7031,12.5547 C27.0156,12.9766 27.5208,13.1875 28.2188,13.1875 C28.8125,13.1875 29.2734,12.9505 29.6016,12.4766 C29.9297,12.0026 30.0938,11.3385 30.0938,10.4844 C30.0938,9.64062 29.9297,8.99219 29.6016,8.53906 C29.2734,8.08594 28.8073,7.85938 28.2031,7.85938 "/>
</g>

<g fill="none" stroke="#000000" stroke-opacity="1" stroke-width="1" stroke-linecap="square" stroke-linejoin="bevel" transform="matrix(2,0,0,2,1062.39,64)"
font-family="Noto Sans" font-size="10" font-weight="400" font-style="normal" 
>
</g>

<g fill="none" stroke="#000000" stroke-opacity="1" stroke-width="1" stroke-linecap="square" stroke-linejoin="bevel" transform="matrix(2,0,0,2,1062.39,64)"
font-family="Noto Sans" font-size="10" font-weight="400" font-style="normal" 
>
</g>

<g fill="none" stroke="#000000" stroke-opacity="1" stroke-width="1" stroke-linecap="square" stroke-linejoin="bevel" transform="matrix(2,0,0,2,0.0028,226)"
font-family="Noto Sans" font-size="10" font-weight="400" font-style="normal" 
>
</g>

<g fill="none" stroke="#000000" stroke-opacity="1" stroke-width="1" stroke-linecap="square" stroke-linejoin="bevel" transform="matrix(2,0,0,2,0.0028,226)"
font-family="Noto Sans" font-size="10" font-weight="400" font-style="normal" 
>
</g>

<g fill="none" stroke="#000000" stroke-opacity="1" stroke-width="1" stroke-linecap="square" stroke-linejoin="bevel" transform="matrix(2,0,0,2,0.0028,226)"
font-family="Noto Sans" font-size="10" font-weight="400" font-style="normal" 
>
</g>

<g fill="none" stroke="#000000" stroke-opacity="1" stroke-width="1" stroke-linecap="square" stroke-linejoin="round" transform="matrix(2,0,0,2,0.0028,226)"
font-family="Noto Sans" font-size="10" font-weight="400" font-style="normal" 
>
<rect x="590.27" y="-112.5" width="81.0008" height="35"/>
</g>

<g fill="none" stroke="#000000" stroke-opacity="1" stroke-width="1" stroke-linecap="square" stroke-linejoin="bevel" transform="matrix(2,0,0,2,0.0028,226)"
font-family="Noto Sans" font-size="10" font-weight="400" font-style="normal" 
>
</g>

<g fill="none" stroke="#000000" stroke-opacity="1" stroke-width="1" stroke-linecap="square" stroke-linejoin="bevel" transform="matrix(2,0,0,2,1186.67,18)"
font-family="Noto Sans" font-size="10" font-weight="400" font-style="normal" 
>
</g>

<g fill="none" stroke="#000000" stroke-opacity="1" stroke-width="1" stroke-linecap="square" stroke-linejoin="bevel" transform="matrix(2,0,0,2,1186.67,18)"
font-family="Noto Sans" font-size="10" font-weight="400" font-style="normal" 
>
</g>

<g fill="#000000" fill-opacity="1" stroke="#000000" stroke-opacity="1" stroke-width="1" stroke-linecap="square" stroke-linejoin="round" transform="matrix(2,0,0,2,1186.67,18)"
font-family="Noto Sans" font-size="10" font-weight="400" font-style="normal" 
>
<path vector-effect="none" fill-rule="nonzero" d="M4.70312,4.71875 L1.25,14 L0.125,14 L3.59375,4.71875 L4.70312,4.71875 M7.46875,14 L4.82812,7.03125 L6.0625,7.03125 L7.53125,11.1406 C7.82292,11.9635 8.01042,12.5781 8.09375,12.9844 L8.14062,12.9844 C8.15104,12.9323 8.16667,12.8698 8.1875,12.7969 C8.20833,12.724 8.23177,12.6458 8.25781,12.5625 C8.28385,12.4792 8.44271,12.0052 8.73438,11.1406 L10.2188,7.03125 L11.4375,7.03125 L8.78125,14 L7.46875,14 M15.7812,6.90625 C16.0833,6.90625 16.3542,6.93229 16.5938,6.98438 L16.4531,8.03125 C16.1927,7.96875 15.9427,7.9375 15.7031,7.9375 C15.3385,7.9375 14.9974,8.03906 14.6797,8.24219 C14.362,8.44531 14.1146,8.72656 13.9375,9.08594 C13.7604,9.44531 13.6719,9.84375 13.6719,10.2812 L13.6719,14 L12.5312,14 L12.5312,7.03125 L13.4688,7.03125 L13.5938,8.3125 L13.6406,8.3125 C13.9115,7.84375 14.2292,7.49219 14.5938,7.25781 C14.9583,7.02344 15.3542,6.90625 15.7812,6.90625 M20.7344,14.125 C19.6823,14.125 18.8594,13.8099 18.2656,13.1797 C17.6719,12.5495 17.375,11.6771 17.375,10.5625 C17.375,9.44792 17.651,8.5599 18.2031,7.89844 C18.7552,7.23698 19.5052,6.90625 20.4531,6.90625 C21.3281,6.90625 22.026,7.1875 22.5469,7.75 C23.0677,8.3125 23.3281,9.07812 23.3281,10.0469 L23.3281,10.7344 L18.5625,10.7344 C18.5833,11.526 18.7839,12.1276 19.1641,12.5391 C19.5443,12.9505 20.0833,13.1562 20.7812,13.1562 C21.1562,13.1562 21.5104,13.1224 21.8438,13.0547 C22.1771,12.987 22.5677,12.8594 23.0156,12.6719 L23.0156,13.6719 C22.6302,13.8385 22.2682,13.9557 21.9297,14.0234 C21.5911,14.0911 21.1927,14.125 20.7344,14.125 M20.4375,7.84375 C19.8958,7.84375 19.4661,8.01823 19.1484,8.36719 C18.8307,8.71615 18.6406,9.20312 18.5781,9.82812 L22.125,9.82812 C22.1146,9.18229 21.9635,8.6901 21.6719,8.35156 C21.3802,8.01302 20.9688,7.84375 20.4375,7.84375 M28.3906,14.125 C27.4531,14.125 26.7344,13.7917 26.2344,13.125 L26.1562,13.125 L26.1875,13.375 C26.2188,13.7083 26.2344,14.0052 26.2344,14.2656 L26.2344,17.125 L25.0938,17.125 L25.0938,7.03125 L26.0312,7.03125 L26.1875,7.98438 L26.2344,7.98438 C26.5052,7.59896 26.8177,7.32292 27.1719,7.15625 C27.526,6.98958 27.9375,6.90625 28.4062,6.90625 C29.3125,6.90625 30.0156,7.21875 30.5156,7.84375 C31.0156,8.46875 31.2656,9.35417 31.2656,10.5 C31.2656,11.6354 31.013,12.5234 30.5078,13.1641 C30.0026,13.8047 29.2969,14.125 28.3906,14.125 M28.2031,7.85938 C27.5156,7.85938 27.0182,8.05469 26.7109,8.44531 C26.4036,8.83594 26.2448,9.44792 26.2344,10.2812 L26.2344,10.5 C26.2344,11.4479 26.3906,12.1328 26.7031,12.5547 C27.0156,12.9766 27.5208,13.1875 28.2188,13.1875 C28.8125,13.1875 29.2734,12.9505 29.6016,12.4766 C29.9297,12.0026 30.0938,11.3385 30.0938,10.4844 C30.0938,9.64062 29.9297,8.99219 29.6016,8.53906 C29.2734,8.08594 28.8073,7.85938 28.2031,7.85938 M36.6719,4.71875 L33.2188,14 L32.0938,14 L35.5625,4.71875 L36.6719,4.71875 M39.0469,14 L37.9062,14 L37.9062,7.03125 L39.0469,7.03125 L39.0469,14 M37.8125,5.14062 C37.8125,4.89062 37.8776,4.70833 38.0078,4.59375 C38.138,4.47917 38.2969,4.42188 38.4844,4.42188 C38.6615,4.42188 38.8177,4.47917 38.9531,4.59375 C39.0885,4.70833 39.1562,4.89062 39.1562,5.14062 C39.1562,5.39062 39.0885,5.57552 38.9531,5.69531 C38.8177,5.8151 38.6615,5.875 38.4844,5.875 C38.2969,5.875 38.138,5.8151 38.0078,5.69531 C37.8776,5.57552 37.8125,5.39062 37.8125,5.14062 M50.1094,14 L50.1094,9.51562 C50.1094,8.41146 49.6406,7.85938 48.7031,7.85938 C48.0573,7.85938 47.5807,8.04688 47.2734,8.42188 C46.9661,8.79688 46.8125,9.375 46.8125,10.1562 L46.8125,14 L45.6719,14 L45.6719,9.51562 C45.6719,8.96354 45.5573,8.54948 45.3281,8.27344 C45.099,7.9974 44.7396,7.85938 44.25,7.85938 C43.6042,7.85938 43.1328,8.05729 42.8359,8.45312 C42.5391,8.84896 42.3906,9.49479 42.3906,10.3906 L42.3906,14 L41.25,14 L41.25,7.03125 L42.1719,7.03125 L42.3438,7.98438 L42.4062,7.98438 C42.6042,7.64062 42.8828,7.375 43.2422,7.1875 C43.6016,7 44.0052,6.90625 44.4531,6.90625 C45.5469,6.90625 46.2604,7.29688 46.5938,8.07812 L46.6562,8.07812 C46.875,7.70312 47.1797,7.41406 47.5703,7.21094 C47.9609,7.00781 48.401,6.90625 48.8906,6.90625 C49.6719,6.90625 50.2604,7.10938 50.6562,7.51562 C51.0521,7.92188 51.25,8.57292 51.25,9.46875 L51.25,14 L50.1094,14 M57.6875,14 L57.4688,13.0156 L57.4219,13.0156 C57.0677,13.4427 56.7188,13.7344 56.375,13.8906 C56.0312,14.0469 55.599,14.125 55.0781,14.125 C54.3906,14.125 53.8516,13.9453 53.4609,13.5859 C53.0703,13.2266 52.875,12.7188 52.875,12.0625 C52.875,10.6458 53.9896,9.90625 56.2188,9.84375 L57.4062,9.79688 L57.4062,9.39062 C57.4062,8.85938 57.2917,8.46875 57.0625,8.21875 C56.8333,7.96875 56.4688,7.84375 55.9688,7.84375 C55.5938,7.84375 55.2422,7.89844 54.9141,8.00781 C54.5859,8.11719 54.2812,8.23958 54,8.375 L53.6406,7.51562 C53.9948,7.32812 54.3802,7.18229 54.7969,7.07812 C55.2135,6.97396 55.625,6.92188 56.0312,6.92188 C56.875,6.92188 57.5,7.10677 57.9062,7.47656 C58.3125,7.84635 58.5156,8.4375 58.5156,9.25 L58.5156,14 L57.6875,14 M55.3438,13.2031 C55.9792,13.2031 56.4792,13.0312 56.8438,12.6875 C57.2083,12.3438 57.3906,11.8542 57.3906,11.2188 L57.3906,10.5938 L56.3594,10.6406 C55.5677,10.6719 54.987,10.7995 54.6172,11.0234 C54.2474,11.2474 54.0625,11.599 54.0625,12.0781 C54.0625,12.4427 54.1745,12.7214 54.3984,12.9141 C54.6224,13.1068 54.9375,13.2031 55.3438,13.2031 M63.3281,13.1875 C64.026,13.1875 64.5339,13 64.8516,12.625 C65.1693,12.25 65.3281,11.6406 65.3281,10.7969 L65.3281,10.5312 C65.3281,9.59375 65.1693,8.91406 64.8516,8.49219 C64.5339,8.07031 64.0156,7.85938 63.2969,7.85938 C62.7135,7.85938 62.263,8.09115 61.9453,8.55469 C61.6276,9.01823 61.4688,9.68229 61.4688,10.5469 C61.4688,11.401 61.6224,12.0547 61.9297,12.5078 C62.237,12.9609 62.7031,13.1875 63.3281,13.1875 M65.3281,13.9375 L65.3594,13.0781 L65.3125,13.0781 C64.8438,13.776 64.125,14.125 63.1562,14.125 C62.25,14.125 61.5443,13.8099 61.0391,13.1797 C60.5339,12.5495 60.2812,11.6667 60.2812,10.5312 C60.2812,9.40625 60.5365,8.52083 61.0469,7.875 C61.5573,7.22917 62.2552,6.90625 63.1406,6.90625 C64.0781,6.90625 64.8073,7.25521 65.3281,7.95312 L65.3906,7.95312 L65.5469,7.03125 L66.4531,7.03125 L66.4531,14.1094 C66.4531,15.1094 66.2005,15.862 65.6953,16.3672 C65.1901,16.8724 64.401,17.125 63.3281,17.125 C62.3177,17.125 61.4844,16.974 60.8281,16.6719 L60.8281,15.625 C61.5052,15.9896 62.3594,16.1719 63.3906,16.1719 C63.9844,16.1719 64.4557,15.9974 64.8047,15.6484 C65.1536,15.2995 65.3281,14.8177 65.3281,14.2031 L65.3281,13.9375 M71.625,14.125 C70.5729,14.125 69.75,13.8099 69.1562,13.1797 C68.5625,12.5495 68.2656,11.6771 68.2656,10.5625 C68.2656,9.44792 68.5417,8.5599 69.0938,7.89844 C69.6458,7.23698 70.3958,6.90625 71.3438,6.90625 C72.2188,6.90625 72.9167,7.1875 73.4375,7.75 C73.9583,8.3125 74.2188,9.07812 74.2188,10.0469 L74.2188,10.7344 L69.4531,10.7344 C69.474,11.526 69.6745,12.1276 70.0547,12.5391 C70.4349,12.9505 70.974,13.1562 71.6719,13.1562 C72.0469,13.1562 72.401,13.1224 72.7344,13.0547 C73.0677,12.987 73.4583,12.8594 73.9062,12.6719 L73.9062,13.6719 C73.5208,13.8385 73.1589,13.9557 72.8203,14.0234 C72.4818,14.0911 72.0833,14.125 71.625,14.125 M71.3281,7.84375 C70.7865,7.84375 70.3568,8.01823 70.0391,8.36719 C69.7214,8.71615 69.5312,9.20312 69.4688,9.82812 L73.0156,9.82812 C73.0052,9.18229 72.8542,8.6901 72.5625,8.35156 C72.2708,8.01302 71.8594,7.84375 71.3281,7.84375 "/>
</g>

<g fill="none" stroke="#000000" stroke-opacity="1" stroke-width="1" stroke-linecap="square" stroke-linejoin="bevel" transform="matrix(2,0,0,2,1186.67,18)"
font-family="Noto Sans" font-size="10" font-weight="400" font-style="normal" 
>
</g>

<g fill="none" stroke="#000000" stroke-opacity="1" stroke-width="1" stroke-linecap="square" stroke-linejoin="bevel" transform="matrix(2,0,0,2,1186.67,18)"
font-family="Noto Sans" font-size="10" font-weight="400" font-style="normal" 
>
</g>

<g fill="none" stroke="#000000" stroke-opacity="1" stroke-width="1" stroke-linecap="square" stroke-linejoin="bevel" transform="matrix(2,0,0,2,0.0028,226)"
font-family="Noto Sans" font-size="10" font-weight="400" font-style="normal" 
>
</g>

<g fill="none" stroke="#000000" stroke-opacity="1" stroke-width="1" stroke-linecap="square" stroke-linejoin="bevel" transform="matrix(2,0,0,2,0.0028,226)"
font-family="Noto Sans" font-size="10" font-weight="400" font-style="normal" 
>
</g>

<g fill="none" stroke="#000000" stroke-opacity="1" stroke-width="1" stroke-linecap="square" stroke-linejoin="bevel" transform="matrix(2,0,0,2,0.0028,226)"
font-family="Noto Sans" font-size="10" font-weight="400" font-style="normal" 
>
</g>

<g fill="none" stroke="#000000" stroke-opacity="1" stroke-width="1" stroke-linecap="square" stroke-linejoin="round" transform="matrix(2,0,0,2,0.0028,226)"
font-family="Noto Sans" font-size="10" font-weight="400" font-style="normal" 
>
<rect x="131.492" y="-89.5" width="102.997" height="35"/>
</g>

<g fill="none" stroke="#000000" stroke-opacity="1" stroke-width="1" stroke-linecap="square" stroke-linejoin="bevel" transform="matrix(2,0,0,2,0.0028,226)"
font-family="Noto Sans" font-size="10" font-weight="400" font-style="normal" 
>
</g>

<g fill="none" stroke="#000000" stroke-opacity="1" stroke-width="1" stroke-linecap="square" stroke-linejoin="bevel" transform="matrix(2,0,0,2,268.17,64)"
font-family="Noto Sans" font-size="10" font-weight="400" font-style="normal" 
>
</g>

<g fill="none" stroke="#000000" stroke-opacity="1" stroke-width="1" stroke-linecap="square" stroke-linejoin="bevel" transform="matrix(2,0,0,2,268.17,64)"
font-family="Noto Sans" font-size="10" font-weight="400" font-style="normal" 
>
</g>

<g fill="#000000" fill-opacity="1" stroke="#000000" stroke-opacity="1" stroke-width="1" stroke-linecap="square" stroke-linejoin="round" transform="matrix(2,0,0,2,268.17,64)"
font-family="Noto Sans" font-size="10" font-weight="400" font-style="normal" 
>
<path vector-effect="none" fill-rule="nonzero" d="M4.70312,4.71875 L1.25,14 L0.125,14 L3.59375,4.71875 L4.70312,4.71875 M8.73438,14.125 C7.72396,14.125 6.9401,13.8177 6.38281,13.2031 C5.82552,12.5885 5.54688,11.7031 5.54688,10.5469 C5.54688,9.38021 5.82812,8.48177 6.39062,7.85156 C6.95312,7.22135 7.76042,6.90625 8.8125,6.90625 C9.14583,6.90625 9.47917,6.9401 9.8125,7.00781 C10.1458,7.07552 10.4219,7.16667 10.6406,7.28125 L10.2812,8.23438 C9.69792,8.01562 9.19792,7.90625 8.78125,7.90625 C8.08333,7.90625 7.56771,8.125 7.23438,8.5625 C6.90104,9 6.73438,9.66146 6.73438,10.5469 C6.73438,11.3802 6.90104,12.0208 7.23438,12.4688 C7.56771,12.9167 8.0625,13.1406 8.71875,13.1406 C9.33333,13.1406 9.9375,13.0052 10.5312,12.7344 L10.5312,13.75 C10.0417,14 9.44271,14.125 8.73438,14.125 M18.2188,10.5 C18.2188,11.6354 17.9323,12.5234 17.3594,13.1641 C16.7865,13.8047 15.9896,14.125 14.9688,14.125 C14.3438,14.125 13.7865,13.9792 13.2969,13.6875 C12.8073,13.3958 12.4323,12.974 12.1719,12.4219 C11.9115,11.8698 11.7812,11.2292 11.7812,10.5 C11.7812,9.36458 12.0651,8.48177 12.6328,7.85156 C13.2005,7.22135 13.9948,6.90625 15.0156,6.90625 C15.9948,6.90625 16.7734,7.22917 17.3516,7.875 C17.9297,8.52083 18.2188,9.39583 18.2188,10.5 M12.9688,10.5 C12.9688,11.375 13.1406,12.0417 13.4844,12.5 C13.8281,12.9583 14.3333,13.1875 15,13.1875 C15.6667,13.1875 16.1745,12.9583 16.5234,12.5 C16.8724,12.0417 17.0469,11.375 17.0469,10.5 C17.0469,9.625 16.8724,8.96615 16.5234,8.52344 C16.1745,8.08073 15.6615,7.85938 14.9844,7.85938 C13.6406,7.85938 12.9688,8.73958 12.9688,10.5 M21.1719,14 L20.0312,14 L20.0312,4.125 L21.1719,4.125 L21.1719,14 M29.4219,10.5 C29.4219,11.6354 29.1354,12.5234 28.5625,13.1641 C27.9896,13.8047 27.1927,14.125 26.1719,14.125 C25.5469,14.125 24.9896,13.9792 24.5,13.6875 C24.0104,13.3958 23.6354,12.974 23.375,12.4219 C23.1146,11.8698 22.9844,11.2292 22.9844,10.5 C22.9844,9.36458 23.2682,8.48177 23.8359,7.85156 C24.4036,7.22135 25.1979,6.90625 26.2188,6.90625 C27.1979,6.90625 27.9766,7.22917 28.5547,7.875 C29.1328,8.52083 29.4219,9.39583 29.4219,10.5 M24.1719,10.5 C24.1719,11.375 24.3438,12.0417 24.6875,12.5 C25.0312,12.9583 25.5365,13.1875 26.2031,13.1875 C26.8698,13.1875 27.3776,12.9583 27.7266,12.5 C28.0755,12.0417 28.25,11.375 28.25,10.5 C28.25,9.625 28.0755,8.96615 27.7266,8.52344 C27.3776,8.08073 26.8646,7.85938 26.1875,7.85938 C24.8438,7.85938 24.1719,8.73958 24.1719,10.5 M34.4844,6.90625 C34.7865,6.90625 35.0573,6.93229 35.2969,6.98438 L35.1562,8.03125 C34.8958,7.96875 34.6458,7.9375 34.4062,7.9375 C34.0417,7.9375 33.7005,8.03906 33.3828,8.24219 C33.0651,8.44531 32.8177,8.72656 32.6406,9.08594 C32.4635,9.44531 32.375,9.84375 32.375,10.2812 L32.375,14 L31.2344,14 L31.2344,7.03125 L32.1719,7.03125 L32.2969,8.3125 L32.3438,8.3125 C32.6146,7.84375 32.9323,7.49219 33.2969,7.25781 C33.6615,7.02344 34.0573,6.90625 34.4844,6.90625 M41.2812,16 L35.4531,16 L35.4531,15.1719 L41.2812,15.1719 L41.2812,16 M44.6875,13.1875 C44.8333,13.1875 45.0052,13.1745 45.2031,13.1484 C45.401,13.1224 45.5521,13.0885 45.6562,13.0469 L45.6562,13.9219 C45.5521,13.974 45.388,14.0208 45.1641,14.0625 C44.9401,14.1042 44.7135,14.125 44.4844,14.125 C43.1198,14.125 42.4375,13.4062 42.4375,11.9688 L42.4375,7.92188 L41.4688,7.92188 L41.4688,7.375 L42.4531,6.92188 L42.9219,5.4375 L43.5938,5.4375 L43.5938,7.03125 L45.6094,7.03125 L45.6094,7.92188 L43.5938,7.92188 L43.5938,11.9375 C43.5938,12.3438 43.6901,12.6536 43.8828,12.8672 C44.0755,13.0807 44.3438,13.1875 44.6875,13.1875 M53.0938,10.5 C53.0938,11.6354 52.8073,12.5234 52.2344,13.1641 C51.6615,13.8047 50.8646,14.125 49.8438,14.125 C49.2188,14.125 48.6615,13.9792 48.1719,13.6875 C47.6823,13.3958 47.3073,12.974 47.0469,12.4219 C46.7865,11.8698 46.6562,11.2292 46.6562,10.5 C46.6562,9.36458 46.9401,8.48177 47.5078,7.85156 C48.0755,7.22135 48.8698,6.90625 49.8906,6.90625 C50.8698,6.90625 51.6484,7.22917 52.2266,7.875 C52.8047,8.52083 53.0938,9.39583 53.0938,10.5 M47.8438,10.5 C47.8438,11.375 48.0156,12.0417 48.3594,12.5 C48.7031,12.9583 49.2083,13.1875 49.875,13.1875 C50.5417,13.1875 51.0495,12.9583 51.3984,12.5 C51.7474,12.0417 51.9219,11.375 51.9219,10.5 C51.9219,9.625 51.7474,8.96615 51.3984,8.52344 C51.0495,8.08073 50.5365,7.85938 49.8594,7.85938 C48.5156,7.85938 47.8438,8.73958 47.8438,10.5 M59.5938,16 L53.7656,16 L53.7656,15.1719 L59.5938,15.1719 L59.5938,16 M63.1406,14.125 C62.2344,14.125 61.5312,13.8125 61.0312,13.1875 C60.5312,12.5625 60.2812,11.6771 60.2812,10.5312 C60.2812,9.38542 60.5312,8.49479 61.0312,7.85938 C61.5312,7.22396 62.2396,6.90625 63.1562,6.90625 C64.0833,6.90625 64.8021,7.25 65.3125,7.9375 L65.3906,7.9375 C65.3802,7.84375 65.3646,7.66927 65.3438,7.41406 C65.3229,7.15885 65.3125,6.98958 65.3125,6.90625 L65.3125,4.125 L66.4531,4.125 L66.4531,14 L65.5312,14 L65.3594,13.0625 L65.3125,13.0625 C64.8229,13.7708 64.099,14.125 63.1406,14.125 M63.3281,13.1875 C64.0156,13.1875 64.5208,12.9974 64.8438,12.6172 C65.1667,12.237 65.3281,11.6146 65.3281,10.75 L65.3281,10.5469 C65.3281,9.57812 65.1641,8.88542 64.8359,8.46875 C64.5078,8.05208 64,7.84375 63.3125,7.84375 C62.7188,7.84375 62.263,8.07812 61.9453,8.54688 C61.6276,9.01562 61.4688,9.68229 61.4688,10.5469 C61.4688,11.4115 61.6276,12.0677 61.9453,12.5156 C62.263,12.9635 62.724,13.1875 63.3281,13.1875 M71.625,14.125 C70.5729,14.125 69.75,13.8099 69.1562,13.1797 C68.5625,12.5495 68.2656,11.6771 68.2656,10.5625 C68.2656,9.44792 68.5417,8.5599 69.0938,7.89844 C69.6458,7.23698 70.3958,6.90625 71.3438,6.90625 C72.2188,6.90625 72.9167,7.1875 73.4375,7.75 C73.9583,8.3125 74.2188,9.07812 74.2188,10.0469 L74.2188,10.7344 L69.4531,10.7344 C69.474,11.526 69.6745,12.1276 70.0547,12.5391 C70.4349,12.9505 70.974,13.1562 71.6719,13.1562 C72.0469,13.1562 72.401,13.1224 72.7344,13.0547 C73.0677,12.987 73.4583,12.8594 73.9062,12.6719 L73.9062,13.6719 C73.5208,13.8385 73.1589,13.9557 72.8203,14.0234 C72.4818,14.0911 72.0833,14.125 71.625,14.125 M71.3281,7.84375 C70.7865,7.84375 70.3568,8.01823 70.0391,8.36719 C69.7214,8.71615 69.5312,9.20312 69.4688,9.82812 L73.0156,9.82812 C73.0052,9.18229 72.8542,8.6901 72.5625,8.35156 C72.2708,8.01302 71.8594,7.84375 71.3281,7.84375 M78.3125,13.1875 C78.4583,13.1875 78.6302,13.1745 78.8281,13.1484 C79.026,13.1224 79.1771,13.0885 79.2812,13.0469 L79.2812,13.9219 C79.1771,13.974 79.013,14.0208 78.7891,14.0625 C78.5651,14.1042 78.3385,14.125 78.1094,14.125 C76.7448,14.125 76.0625,13.4062 76.0625,11.9688 L76.0625,7.92188 L75.0938,7.92188 L75.0938,7.375 L76.0781,6.92188 L76.5469,5.4375 L77.2188,5.4375 L77.2188,7.03125 L79.2344,7.03125 L79.2344,7.92188 L77.2188,7.92188 L77.2188,11.9375 C77.2188,12.3438 77.3151,12.6536 77.5078,12.8672 C77.7005,13.0807 77.9688,13.1875 78.3125,13.1875 M83.6406,14.125 C82.5885,14.125 81.7656,13.8099 81.1719,13.1797 C80.5781,12.5495 80.2812,11.6771 80.2812,10.5625 C80.2812,9.44792 80.5573,8.5599 81.1094,7.89844 C81.6615,7.23698 82.4115,6.90625 83.3594,6.90625 C84.2344,6.90625 84.9323,7.1875 85.4531,7.75 C85.974,8.3125 86.2344,9.07812 86.2344,10.0469 L86.2344,10.7344 L81.4688,10.7344 C81.4896,11.526 81.6901,12.1276 82.0703,12.5391 C82.4505,12.9505 82.9896,13.1562 83.6875,13.1562 C84.0625,13.1562 84.4167,13.1224 84.75,13.0547 C85.0833,12.987 85.474,12.8594 85.9219,12.6719 L85.9219,13.6719 C85.5365,13.8385 85.1745,13.9557 84.8359,14.0234 C84.4974,14.0911 84.099,14.125 83.6406,14.125 M83.3438,7.84375 C82.8021,7.84375 82.3724,8.01823 82.0547,8.36719 C81.737,8.71615 81.5469,9.20312 81.4844,9.82812 L85.0312,9.82812 C85.0208,9.18229 84.8698,8.6901 84.5781,8.35156 C84.2865,8.01302 83.875,7.84375 83.3438,7.84375 M90.7969,14.125 C89.7865,14.125 89.0026,13.8177 88.4453,13.2031 C87.888,12.5885 87.6094,11.7031 87.6094,10.5469 C87.6094,9.38021 87.8906,8.48177 88.4531,7.85156 C89.0156,7.22135 89.8229,6.90625 90.875,6.90625 C91.2083,6.90625 91.5417,6.9401 91.875,7.00781 C92.2083,7.07552 92.4844,7.16667 92.7031,7.28125 L92.3438,8.23438 C91.7604,8.01562 91.2604,7.90625 90.8438,7.90625 C90.1458,7.90625 89.6302,8.125 89.2969,8.5625 C88.9635,9 88.7969,9.66146 88.7969,10.5469 C88.7969,11.3802 88.9635,12.0208 89.2969,12.4688 C89.6302,12.9167 90.125,13.1406 90.7812,13.1406 C91.3958,13.1406 92,13.0052 92.5938,12.7344 L92.5938,13.75 C92.1042,14 91.5052,14.125 90.7969,14.125 M96.5625,13.1875 C96.7083,13.1875 96.8802,13.1745 97.0781,13.1484 C97.276,13.1224 97.4271,13.0885 97.5312,13.0469 L97.5312,13.9219 C97.4271,13.974 97.263,14.0208 97.0391,14.0625 C96.8151,14.1042 96.5885,14.125 96.3594,14.125 C94.9948,14.125 94.3125,13.4062 94.3125,11.9688 L94.3125,7.92188 L93.3438,7.92188 L93.3438,7.375 L94.3281,6.92188 L94.7969,5.4375 L95.4688,5.4375 L95.4688,7.03125 L97.4844,7.03125 L97.4844,7.92188 L95.4688,7.92188 L95.4688,11.9375 C95.4688,12.3438 95.5651,12.6536 95.7578,12.8672 C95.9505,13.0807 96.2188,13.1875 96.5625,13.1875 "/>
</g>

<g fill="none" stroke="#000000" stroke-opacity="1" stroke-width="1" stroke-linecap="square" stroke-linejoin="bevel" transform="matrix(2,0,0,2,268.17,64)"
font-family="Noto Sans" font-size="10" font-weight="400" font-style="normal" 
>
</g>

<g fill="none" stroke="#000000" stroke-opacity="1" stroke-width="1" stroke-linecap="square" stroke-linejoin="bevel" transform="matrix(2,0,0,2,268.17,64)"
font-family="Noto Sans" font-size="10" font-weight="400" font-style="normal" 
>
</g>

<g fill="none" stroke="#000000" stroke-opacity="1" stroke-width="1" stroke-linecap="square" stroke-linejoin="bevel" transform="matrix(2,0,0,2,0.0028,226)"
font-family="Noto Sans" font-size="10" font-weight="400" font-style="normal" 
>
</g>

<g fill="none" stroke="#000000" stroke-opacity="1" stroke-width="1" stroke-linecap="square" stroke-linejoin="bevel" transform="matrix(2,0,0,2,0.0028,226)"
font-family="Noto Sans" font-size="10" font-weight="400" font-style="normal" 
>
</g>

<g fill="none" stroke="#000000" stroke-opacity="1" stroke-width="1" stroke-linecap="square" stroke-linejoin="bevel" transform="matrix(2,0,0,2,0.0028,226)"
font-family="Noto Sans" font-size="10" font-weight="400" font-style="normal" 
>
</g>

<g fill="none" stroke="#000000" stroke-opacity="1" stroke-width="1" stroke-linecap="square" stroke-linejoin="round" transform="matrix(2,0,0,2,0.0028,226)"
font-family="Noto Sans" font-size="10" font-weight="400" font-style="normal" 
>
<rect x="383.082" y="-35.5" width="120.997" height="35"/>
</g>

<g fill="none" stroke="#000000" stroke-opacity="1" stroke-width="1" stroke-linecap="square" stroke-linejoin="bevel" transform="matrix(2,0,0,2,0.0028,226)"
font-family="Noto Sans" font-size="10" font-weight="400" font-style="normal" 
>
</g>

<g fill="none" stroke="#000000" stroke-opacity="1" stroke-width="1" stroke-linecap="square" stroke-linejoin="bevel" transform="matrix(2,0,0,2,767.194,172)"
font-family="Noto Sans" font-size="10" font-weight="400" font-style="normal" 
>
</g>

<g fill="none" stroke="#000000" stroke-opacity="1" stroke-width="1" stroke-linecap="square" stroke-linejoin="bevel" transform="matrix(2,0,0,2,767.194,172)"
font-family="Noto Sans" font-size="10" font-weight="400" font-style="normal" 
>
</g>

<g fill="#000000" fill-opacity="1" stroke="#000000" stroke-opacity="1" stroke-width="1" stroke-linecap="square" stroke-linejoin="round" transform="matrix(2,0,0,2,767.194,172)"
font-family="Noto Sans" font-size="10" font-weight="400" font-style="normal" 
>
<path vector-effect="none" fill-rule="nonzero" d="M4.70312,4.71875 L1.25,14 L0.125,14 L3.59375,4.71875 L4.70312,4.71875 M7.46875,14 L4.82812,7.03125 L6.0625,7.03125 L7.53125,11.1406 C7.82292,11.9635 8.01042,12.5781 8.09375,12.9844 L8.14062,12.9844 C8.15104,12.9323 8.16667,12.8698 8.1875,12.7969 C8.20833,12.724 8.23177,12.6458 8.25781,12.5625 C8.28385,12.4792 8.44271,12.0052 8.73438,11.1406 L10.2188,7.03125 L11.4375,7.03125 L8.78125,14 L7.46875,14 M15.7812,6.90625 C16.0833,6.90625 16.3542,6.93229 16.5938,6.98438 L16.4531,8.03125 C16.1927,7.96875 15.9427,7.9375 15.7031,7.9375 C15.3385,7.9375 14.9974,8.03906 14.6797,8.24219 C14.362,8.44531 14.1146,8.72656 13.9375,9.08594 C13.7604,9.44531 13.6719,9.84375 13.6719,10.2812 L13.6719,14 L12.5312,14 L12.5312,7.03125 L13.4688,7.03125 L13.5938,8.3125 L13.6406,8.3125 C13.9115,7.84375 14.2292,7.49219 14.5938,7.25781 C14.9583,7.02344 15.3542,6.90625 15.7812,6.90625 M20.7344,14.125 C19.6823,14.125 18.8594,13.8099 18.2656,13.1797 C17.6719,12.5495 17.375,11.6771 17.375,10.5625 C17.375,9.44792 17.651,8.5599 18.2031,7.89844 C18.7552,7.23698 19.5052,6.90625 20.4531,6.90625 C21.3281,6.90625 22.026,7.1875 22.5469,7.75 C23.0677,8.3125 23.3281,9.07812 23.3281,10.0469 L23.3281,10.7344 L18.5625,10.7344 C18.5833,11.526 18.7839,12.1276 19.1641,12.5391 C19.5443,12.9505 20.0833,13.1562 20.7812,13.1562 C21.1562,13.1562 21.5104,13.1224 21.8438,13.0547 C22.1771,12.987 22.5677,12.8594 23.0156,12.6719 L23.0156,13.6719 C22.6302,13.8385 22.2682,13.9557 21.9297,14.0234 C21.5911,14.0911 21.1927,14.125 20.7344,14.125 M20.4375,7.84375 C19.8958,7.84375 19.4661,8.01823 19.1484,8.36719 C18.8307,8.71615 18.6406,9.20312 18.5781,9.82812 L22.125,9.82812 C22.1146,9.18229 21.9635,8.6901 21.6719,8.35156 C21.3802,8.01302 20.9688,7.84375 20.4375,7.84375 M28.3906,14.125 C27.4531,14.125 26.7344,13.7917 26.2344,13.125 L26.1562,13.125 L26.1875,13.375 C26.2188,13.7083 26.2344,14.0052 26.2344,14.2656 L26.2344,17.125 L25.0938,17.125 L25.0938,7.03125 L26.0312,7.03125 L26.1875,7.98438 L26.2344,7.98438 C26.5052,7.59896 26.8177,7.32292 27.1719,7.15625 C27.526,6.98958 27.9375,6.90625 28.4062,6.90625 C29.3125,6.90625 30.0156,7.21875 30.5156,7.84375 C31.0156,8.46875 31.2656,9.35417 31.2656,10.5 C31.2656,11.6354 31.013,12.5234 30.5078,13.1641 C30.0026,13.8047 29.2969,14.125 28.3906,14.125 M28.2031,7.85938 C27.5156,7.85938 27.0182,8.05469 26.7109,8.44531 C26.4036,8.83594 26.2448,9.44792 26.2344,10.2812 L26.2344,10.5 C26.2344,11.4479 26.3906,12.1328 26.7031,12.5547 C27.0156,12.9766 27.5208,13.1875 28.2188,13.1875 C28.8125,13.1875 29.2734,12.9505 29.6016,12.4766 C29.9297,12.0026 30.0938,11.3385 30.0938,10.4844 C30.0938,9.64062 29.9297,8.99219 29.6016,8.53906 C29.2734,8.08594 28.8073,7.85938 28.2031,7.85938 M36.6719,4.71875 L33.2188,14 L32.0938,14 L35.5625,4.71875 L36.6719,4.71875 M37.0781,17.125 C36.6823,17.125 36.349,17.0729 36.0781,16.9688 L36.0781,16.0469 C36.3698,16.1302 36.6562,16.1719 36.9375,16.1719 C37.2708,16.1719 37.5156,16.0807 37.6719,15.8984 C37.8281,15.7161 37.9062,15.4427 37.9062,15.0781 L37.9062,7.03125 L39.0469,7.03125 L39.0469,15.0469 C39.0469,15.7344 38.8802,16.2526 38.5469,16.6016 C38.2135,16.9505 37.724,17.125 37.0781,17.125 M37.8125,5.14062 C37.8125,4.89062 37.8776,4.70833 38.0078,4.59375 C38.138,4.47917 38.2969,4.42188 38.4844,4.42188 C38.6615,4.42188 38.8177,4.47917 38.9531,4.59375 C39.0885,4.70833 39.1562,4.89062 39.1562,5.14062 C39.1562,5.39062 39.0885,5.57552 38.9531,5.69531 C38.8177,5.8151 38.6615,5.875 38.4844,5.875 C38.2969,5.875 38.138,5.8151 38.0078,5.69531 C37.8776,5.57552 37.8125,5.39062 37.8125,5.14062 M47.2969,10.5 C47.2969,11.6354 47.0104,12.5234 46.4375,13.1641 C45.8646,13.8047 45.0677,14.125 44.0469,14.125 C43.4219,14.125 42.8646,13.9792 42.375,13.6875 C41.8854,13.3958 41.5104,12.974 41.25,12.4219 C40.9896,11.8698 40.8594,11.2292 40.8594,10.5 C40.8594,9.36458 41.1432,8.48177 41.7109,7.85156 C42.2786,7.22135 43.0729,6.90625 44.0938,6.90625 C45.0729,6.90625 45.8516,7.22917 46.4297,7.875 C47.0078,8.52083 47.2969,9.39583 47.2969,10.5 M42.0469,10.5 C42.0469,11.375 42.2188,12.0417 42.5625,12.5 C42.9062,12.9583 43.4115,13.1875 44.0781,13.1875 C44.7448,13.1875 45.2526,12.9583 45.6016,12.5 C45.9505,12.0417 46.125,11.375 46.125,10.5 C46.125,9.625 45.9505,8.96615 45.6016,8.52344 C45.2526,8.08073 44.7396,7.85938 44.0625,7.85938 C42.7188,7.85938 42.0469,8.73958 42.0469,10.5 M50.25,14 L49.1094,14 L49.1094,7.03125 L50.25,7.03125 L50.25,14 M49.0156,5.14062 C49.0156,4.89062 49.0807,4.70833 49.2109,4.59375 C49.3411,4.47917 49.5,4.42188 49.6875,4.42188 C49.8646,4.42188 50.0208,4.47917 50.1562,4.59375 C50.2917,4.70833 50.3594,4.89062 50.3594,5.14062 C50.3594,5.39062 50.2917,5.57552 50.1562,5.69531 C50.0208,5.8151 49.8646,5.875 49.6875,5.875 C49.5,5.875 49.3411,5.8151 49.2109,5.69531 C49.0807,5.57552 49.0156,5.39062 49.0156,5.14062 M57.2031,14 L57.2031,9.54688 C57.2031,8.97396 57.0755,8.54948 56.8203,8.27344 C56.5651,7.9974 56.1719,7.85938 55.6406,7.85938 C54.9219,7.85938 54.401,8.05729 54.0781,8.45312 C53.7552,8.84896 53.5938,9.49479 53.5938,10.3906 L53.5938,14 L52.4531,14 L52.4531,7.03125 L53.375,7.03125 L53.5469,7.98438 L53.6094,7.98438 C53.8177,7.64062 54.1172,7.375 54.5078,7.1875 C54.8984,7 55.3281,6.90625 55.7969,6.90625 C56.651,6.90625 57.2865,7.11198 57.7031,7.52344 C58.1198,7.9349 58.3281,8.58333 58.3281,9.46875 L58.3281,14 L57.2031,14 M62.8125,13.1875 C62.9583,13.1875 63.1302,13.1745 63.3281,13.1484 C63.526,13.1224 63.6771,13.0885 63.7812,13.0469 L63.7812,13.9219 C63.6771,13.974 63.513,14.0208 63.2891,14.0625 C63.0651,14.1042 62.8385,14.125 62.6094,14.125 C61.2448,14.125 60.5625,13.4062 60.5625,11.9688 L60.5625,7.92188 L59.5938,7.92188 L59.5938,7.375 L60.5781,6.92188 L61.0469,5.4375 L61.7188,5.4375 L61.7188,7.03125 L63.7344,7.03125 L63.7344,7.92188 L61.7188,7.92188 L61.7188,11.9375 C61.7188,12.3438 61.8151,12.6536 62.0078,12.8672 C62.2005,13.0807 62.4688,13.1875 62.8125,13.1875 M69.8594,16 L64.0312,16 L64.0312,15.1719 L69.8594,15.1719 L69.8594,16 M75.4688,12.0781 C75.4688,12.724 75.2266,13.2266 74.7422,13.5859 C74.2578,13.9453 73.5729,14.125 72.6875,14.125 C71.7708,14.125 71.0417,13.9792 70.5,13.6875 L70.5,12.6406 C71.2708,13.0156 72.0104,13.2031 72.7188,13.2031 C73.2917,13.2031 73.7109,13.1094 73.9766,12.9219 C74.2422,12.7344 74.375,12.4844 74.375,12.1719 C74.375,11.901 74.2474,11.6693 73.9922,11.4766 C73.737,11.2839 73.2865,11.0677 72.6406,10.8281 C71.9948,10.5677 71.5365,10.349 71.2656,10.1719 C70.9948,9.99479 70.7969,9.79427 70.6719,9.57031 C70.5469,9.34635 70.4844,9.07292 70.4844,8.75 C70.4844,8.17708 70.7188,7.72656 71.1875,7.39844 C71.6562,7.07031 72.2969,6.90625 73.1094,6.90625 C73.901,6.90625 74.6406,7.0625 75.3281,7.375 L74.9375,8.28125 C74.2292,7.98958 73.5938,7.84375 73.0312,7.84375 C72.5521,7.84375 72.1901,7.91667 71.9453,8.0625 C71.7005,8.20833 71.5781,8.41667 71.5781,8.6875 C71.5781,8.9375 71.6849,9.14583 71.8984,9.3125 C72.112,9.47917 72.6042,9.70833 73.375,10 C73.9583,10.2188 74.388,10.4219 74.6641,10.6094 C74.9401,10.7969 75.1432,11.0078 75.2734,11.2422 C75.4036,11.4766 75.4688,11.7552 75.4688,12.0781 M80.125,14.125 C79.0729,14.125 78.25,13.8099 77.6562,13.1797 C77.0625,12.5495 76.7656,11.6771 76.7656,10.5625 C76.7656,9.44792 77.0417,8.5599 77.5938,7.89844 C78.1458,7.23698 78.8958,6.90625 79.8438,6.90625 C80.7188,6.90625 81.4167,7.1875 81.9375,7.75 C82.4583,8.3125 82.7188,9.07812 82.7188,10.0469 L82.7188,10.7344 L77.9531,10.7344 C77.974,11.526 78.1745,12.1276 78.5547,12.5391 C78.9349,12.9505 79.474,13.1562 80.1719,13.1562 C80.5469,13.1562 80.901,13.1224 81.2344,13.0547 C81.5677,12.987 81.9583,12.8594 82.4062,12.6719 L82.4062,13.6719 C82.0208,13.8385 81.6589,13.9557 81.3203,14.0234 C80.9818,14.0911 80.5833,14.125 80.125,14.125 M79.8281,7.84375 C79.2865,7.84375 78.8568,8.01823 78.5391,8.36719 C78.2214,8.71615 78.0312,9.20312 77.9688,9.82812 L81.5156,9.82812 C81.5052,9.18229 81.3542,8.6901 81.0625,8.35156 C80.7708,8.01302 80.3594,7.84375 79.8281,7.84375 M86.8125,13.1875 C86.9583,13.1875 87.1302,13.1745 87.3281,13.1484 C87.526,13.1224 87.6771,13.0885 87.7812,13.0469 L87.7812,13.9219 C87.6771,13.974 87.513,14.0208 87.2891,14.0625 C87.0651,14.1042 86.8385,14.125 86.6094,14.125 C85.2448,14.125 84.5625,13.4062 84.5625,11.9688 L84.5625,7.92188 L83.5938,7.92188 L83.5938,7.375 L84.5781,6.92188 L85.0469,5.4375 L85.7188,5.4375 L85.7188,7.03125 L87.7344,7.03125 L87.7344,7.92188 L85.7188,7.92188 L85.7188,11.9375 C85.7188,12.3438 85.8151,12.6536 86.0078,12.8672 C86.2005,13.0807 86.4688,13.1875 86.8125,13.1875 M92.4688,14.125 C91.5312,14.125 90.8125,13.7917 90.3125,13.125 L90.2344,13.125 L90.2656,13.375 C90.2969,13.7083 90.3125,14.0052 90.3125,14.2656 L90.3125,17.125 L89.1719,17.125 L89.1719,7.03125 L90.1094,7.03125 L90.2656,7.98438 L90.3125,7.98438 C90.5833,7.59896 90.8958,7.32292 91.25,7.15625 C91.6042,6.98958 92.0156,6.90625 92.4844,6.90625 C93.3906,6.90625 94.0938,7.21875 94.5938,7.84375 C95.0938,8.46875 95.3438,9.35417 95.3438,10.5 C95.3438,11.6354 95.0911,12.5234 94.5859,13.1641 C94.0807,13.8047 93.375,14.125 92.4688,14.125 M92.2812,7.85938 C91.5938,7.85938 91.0964,8.05469 90.7891,8.44531 C90.4818,8.83594 90.3229,9.44792 90.3125,10.2812 L90.3125,10.5 C90.3125,11.4479 90.4688,12.1328 90.7812,12.5547 C91.0938,12.9766 91.599,13.1875 92.2969,13.1875 C92.8906,13.1875 93.3516,12.9505 93.6797,12.4766 C94.0078,12.0026 94.1719,11.3385 94.1719,10.4844 C94.1719,9.64062 94.0078,8.99219 93.6797,8.53906 C93.3516,8.08594 92.8854,7.85938 92.2812,7.85938 M103.203,10.5 C103.203,11.6354 102.917,12.5234 102.344,13.1641 C101.771,13.8047 100.974,14.125 99.9531,14.125 C99.3281,14.125 98.7708,13.9792 98.2812,13.6875 C97.7917,13.3958 97.4167,12.974 97.1562,12.4219 C96.8958,11.8698 96.7656,11.2292 96.7656,10.5 C96.7656,9.36458 97.0495,8.48177 97.6172,7.85156 C98.1849,7.22135 98.9792,6.90625 100,6.90625 C100.979,6.90625 101.758,7.22917 102.336,7.875 C102.914,8.52083 103.203,9.39583 103.203,10.5 M97.9531,10.5 C97.9531,11.375 98.125,12.0417 98.4688,12.5 C98.8125,12.9583 99.3177,13.1875 99.9844,13.1875 C100.651,13.1875 101.159,12.9583 101.508,12.5 C101.857,12.0417 102.031,11.375 102.031,10.5 C102.031,9.625 101.857,8.96615 101.508,8.52344 C101.159,8.08073 100.646,7.85938 99.9688,7.85938 C98.625,7.85938 97.9531,8.73958 97.9531,10.5 M106.156,14 L105.016,14 L105.016,7.03125 L106.156,7.03125 L106.156,14 M104.922,5.14062 C104.922,4.89062 104.987,4.70833 105.117,4.59375 C105.247,4.47917 105.406,4.42188 105.594,4.42188 C105.771,4.42188 105.927,4.47917 106.062,4.59375 C106.198,4.70833 106.266,4.89062 106.266,5.14062 C106.266,5.39062 106.198,5.57552 106.062,5.69531 C105.927,5.8151 105.771,5.875 105.594,5.875 C105.406,5.875 105.247,5.8151 105.117,5.69531 C104.987,5.57552 104.922,5.39062 104.922,5.14062 M113.109,14 L113.109,9.54688 C113.109,8.97396 112.982,8.54948 112.727,8.27344 C112.471,7.9974 112.078,7.85938 111.547,7.85938 C110.828,7.85938 110.307,8.05729 109.984,8.45312 C109.661,8.84896 109.5,9.49479 109.5,10.3906 L109.5,14 L108.359,14 L108.359,7.03125 L109.281,7.03125 L109.453,7.98438 L109.516,7.98438 C109.724,7.64062 110.023,7.375 110.414,7.1875 C110.805,7 111.234,6.90625 111.703,6.90625 C112.557,6.90625 113.193,7.11198 113.609,7.52344 C114.026,7.9349 114.234,8.58333 114.234,9.46875 L114.234,14 L113.109,14 M118.719,13.1875 C118.865,13.1875 119.036,13.1745 119.234,13.1484 C119.432,13.1224 119.583,13.0885 119.688,13.0469 L119.688,13.9219 C119.583,13.974 119.419,14.0208 119.195,14.0625 C118.971,14.1042 118.745,14.125 118.516,14.125 C117.151,14.125 116.469,13.4062 116.469,11.9688 L116.469,7.92188 L115.5,7.92188 L115.5,7.375 L116.484,6.92188 L116.953,5.4375 L117.625,5.4375 L117.625,7.03125 L119.641,7.03125 L119.641,7.92188 L117.625,7.92188 L117.625,11.9375 C117.625,12.3438 117.721,12.6536 117.914,12.8672 C118.107,13.0807 118.375,13.1875 118.719,13.1875 "/>
</g>

<g fill="none" stroke="#000000" stroke-opacity="1" stroke-width="1" stroke-linecap="square" stroke-linejoin="bevel" transform="matrix(2,0,0,2,767.194,172)"
font-family="Noto Sans" font-size="10" font-weight="400" font-style="normal" 
>
</g>

<g fill="none" stroke="#000000" stroke-opacity="1" stroke-width="1" stroke-linecap="square" stroke-linejoin="bevel" transform="matrix(2,0,0,2,767.194,172)"
font-family="Noto Sans" font-size="10" font-weight="400" font-style="normal" 
>
</g>

<g fill="none" stroke="#000000" stroke-opacity="1" stroke-width="1" stroke-linecap="square" stroke-linejoin="bevel" transform="matrix(2,0,0,2,0.0028,226)"
font-family="Noto Sans" font-size="10" font-weight="400" font-style="normal" 
>
</g>

<g fill="none" stroke="#000000" stroke-opacity="1" stroke-width="1" stroke-linecap="square" stroke-linejoin="bevel" transform="matrix(2,0,0,2,0.0028,226)"
font-family="Noto Sans" font-size="10" font-weight="400" font-style="normal" 
>
</g>

<g fill="none" stroke="#000000" stroke-opacity="1" stroke-width="1" stroke-linecap="square" stroke-linejoin="bevel" transform="matrix(2,0,0,2,0.0028,226)"
font-family="Noto Sans" font-size="10" font-weight="400" font-style="normal" 
>
</g>

<g fill="none" stroke="#000000" stroke-opacity="1" stroke-width="1" stroke-linecap="square" stroke-linejoin="round" transform="matrix(2,0,0,2,0.0028,226)"
font-family="Noto Sans" font-size="10" font-weight="400" font-style="normal" 
>
<rect x="387.081" y="-89.5" width="112.998" height="35"/>
</g>

<g fill="none" stroke="#000000" stroke-opacity="1" stroke-width="1" stroke-linecap="square" stroke-linejoin="bevel" transform="matrix(2,0,0,2,0.0028,226)"
font-family="Noto Sans" font-size="10" font-weight="400" font-style="normal" 
>
</g>

<g fill="none" stroke="#000000" stroke-opacity="1" stroke-width="1" stroke-linecap="square" stroke-linejoin="bevel" transform="matrix(2,0,0,2,776.1,64)"
font-family="Noto Sans" font-size="10" font-weight="400" font-style="normal" 
>
</g>

<g fill="none" stroke="#000000" stroke-opacity="1" stroke-width="1" stroke-linecap="square" stroke-linejoin="bevel" transform="matrix(2,0,0,2,776.1,64)"
font-family="Noto Sans" font-size="10" font-weight="400" font-style="normal" 
>
</g>

<g fill="#000000" fill-opacity="1" stroke="#000000" stroke-opacity="1" stroke-width="1" stroke-linecap="square" stroke-linejoin="round" transform="matrix(2,0,0,2,776.1,64)"
font-family="Noto Sans" font-size="10" font-weight="400" font-style="normal" 
>
<path vector-effect="none" fill-rule="nonzero" d="M4.70312,4.71875 L1.25,14 L0.125,14 L3.59375,4.71875 L4.70312,4.71875 M9.23438,14.125 C8.29688,14.125 7.57812,13.7917 7.07812,13.125 L7,13.125 L7.03125,13.375 C7.0625,13.7083 7.07812,14.0052 7.07812,14.2656 L7.07812,17.125 L5.9375,17.125 L5.9375,7.03125 L6.875,7.03125 L7.03125,7.98438 L7.07812,7.98438 C7.34896,7.59896 7.66146,7.32292 8.01562,7.15625 C8.36979,6.98958 8.78125,6.90625 9.25,6.90625 C10.1562,6.90625 10.8594,7.21875 11.3594,7.84375 C11.8594,8.46875 12.1094,9.35417 12.1094,10.5 C12.1094,11.6354 11.8568,12.5234 11.3516,13.1641 C10.8464,13.8047 10.1406,14.125 9.23438,14.125 M9.04688,7.85938 C8.35938,7.85938 7.86198,8.05469 7.55469,8.44531 C7.2474,8.83594 7.08854,9.44792 7.07812,10.2812 L7.07812,10.5 C7.07812,11.4479 7.23438,12.1328 7.54688,12.5547 C7.85938,12.9766 8.36458,13.1875 9.0625,13.1875 C9.65625,13.1875 10.1172,12.9505 10.4453,12.4766 C10.7734,12.0026 10.9375,11.3385 10.9375,10.4844 C10.9375,9.64062 10.7734,8.99219 10.4453,8.53906 C10.1172,8.08594 9.65104,7.85938 9.04688,7.85938 M17.1719,6.90625 C17.474,6.90625 17.7448,6.93229 17.9844,6.98438 L17.8438,8.03125 C17.5833,7.96875 17.3333,7.9375 17.0938,7.9375 C16.7292,7.9375 16.388,8.03906 16.0703,8.24219 C15.7526,8.44531 15.5052,8.72656 15.3281,9.08594 C15.151,9.44531 15.0625,9.84375 15.0625,10.2812 L15.0625,14 L13.9219,14 L13.9219,7.03125 L14.8594,7.03125 L14.9844,8.3125 L15.0312,8.3125 C15.3021,7.84375 15.6198,7.49219 15.9844,7.25781 C16.349,7.02344 16.7448,6.90625 17.1719,6.90625 M25.2031,10.5 C25.2031,11.6354 24.9167,12.5234 24.3438,13.1641 C23.7708,13.8047 22.974,14.125 21.9531,14.125 C21.3281,14.125 20.7708,13.9792 20.2812,13.6875 C19.7917,13.3958 19.4167,12.974 19.1562,12.4219 C18.8958,11.8698 18.7656,11.2292 18.7656,10.5 C18.7656,9.36458 19.0495,8.48177 19.6172,7.85156 C20.1849,7.22135 20.9792,6.90625 22,6.90625 C22.9792,6.90625 23.7578,7.22917 24.3359,7.875 C24.9141,8.52083 25.2031,9.39583 25.2031,10.5 M19.9531,10.5 C19.9531,11.375 20.125,12.0417 20.4688,12.5 C20.8125,12.9583 21.3177,13.1875 21.9844,13.1875 C22.651,13.1875 23.1589,12.9583 23.5078,12.5 C23.8568,12.0417 24.0312,11.375 24.0312,10.5 C24.0312,9.625 23.8568,8.96615 23.5078,8.52344 C23.1589,8.08073 22.6458,7.85938 21.9688,7.85938 C20.625,7.85938 19.9531,8.73958 19.9531,10.5 M29.8125,14.125 C28.8021,14.125 28.0182,13.8177 27.4609,13.2031 C26.9036,12.5885 26.625,11.7031 26.625,10.5469 C26.625,9.38021 26.9062,8.48177 27.4688,7.85156 C28.0312,7.22135 28.8385,6.90625 29.8906,6.90625 C30.224,6.90625 30.5573,6.9401 30.8906,7.00781 C31.224,7.07552 31.5,7.16667 31.7188,7.28125 L31.3594,8.23438 C30.776,8.01562 30.276,7.90625 29.8594,7.90625 C29.1615,7.90625 28.6458,8.125 28.3125,8.5625 C27.9792,9 27.8125,9.66146 27.8125,10.5469 C27.8125,11.3802 27.9792,12.0208 28.3125,12.4688 C28.6458,12.9167 29.1406,13.1406 29.7969,13.1406 C30.4115,13.1406 31.0156,13.0052 31.6094,12.7344 L31.6094,13.75 C31.1198,14 30.5208,14.125 29.8125,14.125 M36.2188,14.125 C35.1667,14.125 34.3438,13.8099 33.75,13.1797 C33.1562,12.5495 32.8594,11.6771 32.8594,10.5625 C32.8594,9.44792 33.1354,8.5599 33.6875,7.89844 C34.2396,7.23698 34.9896,6.90625 35.9375,6.90625 C36.8125,6.90625 37.5104,7.1875 38.0312,7.75 C38.5521,8.3125 38.8125,9.07812 38.8125,10.0469 L38.8125,10.7344 L34.0469,10.7344 C34.0677,11.526 34.2682,12.1276 34.6484,12.5391 C35.0286,12.9505 35.5677,13.1562 36.2656,13.1562 C36.6406,13.1562 36.9948,13.1224 37.3281,13.0547 C37.6615,12.987 38.0521,12.8594 38.5,12.6719 L38.5,13.6719 C38.1146,13.8385 37.7526,13.9557 37.4141,14.0234 C37.0755,14.0911 36.6771,14.125 36.2188,14.125 M35.9219,7.84375 C35.3802,7.84375 34.9505,8.01823 34.6328,8.36719 C34.3151,8.71615 34.125,9.20312 34.0625,9.82812 L37.6094,9.82812 C37.599,9.18229 37.4479,8.6901 37.1562,8.35156 C36.8646,8.01302 36.4531,7.84375 35.9219,7.84375 M45.1094,12.0781 C45.1094,12.724 44.8672,13.2266 44.3828,13.5859 C43.8984,13.9453 43.2135,14.125 42.3281,14.125 C41.4115,14.125 40.6823,13.9792 40.1406,13.6875 L40.1406,12.6406 C40.9115,13.0156 41.651,13.2031 42.3594,13.2031 C42.9323,13.2031 43.3516,13.1094 43.6172,12.9219 C43.8828,12.7344 44.0156,12.4844 44.0156,12.1719 C44.0156,11.901 43.888,11.6693 43.6328,11.4766 C43.3776,11.2839 42.9271,11.0677 42.2812,10.8281 C41.6354,10.5677 41.1771,10.349 40.9062,10.1719 C40.6354,9.99479 40.4375,9.79427 40.3125,9.57031 C40.1875,9.34635 40.125,9.07292 40.125,8.75 C40.125,8.17708 40.3594,7.72656 40.8281,7.39844 C41.2969,7.07031 41.9375,6.90625 42.75,6.90625 C43.5417,6.90625 44.2812,7.0625 44.9688,7.375 L44.5781,8.28125 C43.8698,7.98958 43.2344,7.84375 42.6719,7.84375 C42.1927,7.84375 41.8307,7.91667 41.5859,8.0625 C41.3411,8.20833 41.2188,8.41667 41.2188,8.6875 C41.2188,8.9375 41.3255,9.14583 41.5391,9.3125 C41.7526,9.47917 42.2448,9.70833 43.0156,10 C43.599,10.2188 44.0286,10.4219 44.3047,10.6094 C44.5807,10.7969 44.7839,11.0078 44.9141,11.2422 C45.0443,11.4766 45.1094,11.7552 45.1094,12.0781 M51.3281,12.0781 C51.3281,12.724 51.0859,13.2266 50.6016,13.5859 C50.1172,13.9453 49.4323,14.125 48.5469,14.125 C47.6302,14.125 46.901,13.9792 46.3594,13.6875 L46.3594,12.6406 C47.1302,13.0156 47.8698,13.2031 48.5781,13.2031 C49.151,13.2031 49.5703,13.1094 49.8359,12.9219 C50.1016,12.7344 50.2344,12.4844 50.2344,12.1719 C50.2344,11.901 50.1068,11.6693 49.8516,11.4766 C49.5964,11.2839 49.1458,11.0677 48.5,10.8281 C47.8542,10.5677 47.3958,10.349 47.125,10.1719 C46.8542,9.99479 46.6562,9.79427 46.5312,9.57031 C46.4062,9.34635 46.3438,9.07292 46.3438,8.75 C46.3438,8.17708 46.5781,7.72656 47.0469,7.39844 C47.5156,7.07031 48.1562,6.90625 48.9688,6.90625 C49.7604,6.90625 50.5,7.0625 51.1875,7.375 L50.7969,8.28125 C50.0885,7.98958 49.4531,7.84375 48.8906,7.84375 C48.4115,7.84375 48.0495,7.91667 47.8047,8.0625 C47.5599,8.20833 47.4375,8.41667 47.4375,8.6875 C47.4375,8.9375 47.5443,9.14583 47.7578,9.3125 C47.9714,9.47917 48.4635,9.70833 49.2344,10 C49.8177,10.2188 50.2474,10.4219 50.5234,10.6094 C50.7995,10.7969 51.0026,11.0078 51.1328,11.2422 C51.263,11.4766 51.3281,11.7552 51.3281,12.0781 M55.9844,14.125 C54.9323,14.125 54.1094,13.8099 53.5156,13.1797 C52.9219,12.5495 52.625,11.6771 52.625,10.5625 C52.625,9.44792 52.901,8.5599 53.4531,7.89844 C54.0052,7.23698 54.7552,6.90625 55.7031,6.90625 C56.5781,6.90625 57.276,7.1875 57.7969,7.75 C58.3177,8.3125 58.5781,9.07812 58.5781,10.0469 L58.5781,10.7344 L53.8125,10.7344 C53.8333,11.526 54.0339,12.1276 54.4141,12.5391 C54.7943,12.9505 55.3333,13.1562 56.0312,13.1562 C56.4062,13.1562 56.7604,13.1224 57.0938,13.0547 C57.4271,12.987 57.8177,12.8594 58.2656,12.6719 L58.2656,13.6719 C57.8802,13.8385 57.5182,13.9557 57.1797,14.0234 C56.8411,14.0911 56.4427,14.125 55.9844,14.125 M55.6875,7.84375 C55.1458,7.84375 54.7161,8.01823 54.3984,8.36719 C54.0807,8.71615 53.8906,9.20312 53.8281,9.82812 L57.375,9.82812 C57.3646,9.18229 57.2135,8.6901 56.9219,8.35156 C56.6302,8.01302 56.2188,7.84375 55.6875,7.84375 M62.8125,14.125 C61.9062,14.125 61.2031,13.8125 60.7031,13.1875 C60.2031,12.5625 59.9531,11.6771 59.9531,10.5312 C59.9531,9.38542 60.2031,8.49479 60.7031,7.85938 C61.2031,7.22396 61.9115,6.90625 62.8281,6.90625 C63.7552,6.90625 64.474,7.25 64.9844,7.9375 L65.0625,7.9375 C65.0521,7.84375 65.0365,7.66927 65.0156,7.41406 C64.9948,7.15885 64.9844,6.98958 64.9844,6.90625 L64.9844,4.125 L66.125,4.125 L66.125,14 L65.2031,14 L65.0312,13.0625 L64.9844,13.0625 C64.4948,13.7708 63.7708,14.125 62.8125,14.125 M63,13.1875 C63.6875,13.1875 64.1927,12.9974 64.5156,12.6172 C64.8385,12.237 65,11.6146 65,10.75 L65,10.5469 C65,9.57812 64.8359,8.88542 64.5078,8.46875 C64.1797,8.05208 63.6719,7.84375 62.9844,7.84375 C62.3906,7.84375 61.9349,8.07812 61.6172,8.54688 C61.2995,9.01562 61.1406,9.68229 61.1406,10.5469 C61.1406,11.4115 61.2995,12.0677 61.6172,12.5156 C61.9349,12.9635 62.3958,13.1875 63,13.1875 M73.0156,16 L67.1875,16 L67.1875,15.1719 L73.0156,15.1719 L73.0156,16 M75.2344,14 L74.0938,14 L74.0938,7.03125 L75.2344,7.03125 L75.2344,14 M74,5.14062 C74,4.89062 74.0651,4.70833 74.1953,4.59375 C74.3255,4.47917 74.4844,4.42188 74.6719,4.42188 C74.849,4.42188 75.0052,4.47917 75.1406,4.59375 C75.276,4.70833 75.3438,4.89062 75.3438,5.14062 C75.3438,5.39062 75.276,5.57552 75.1406,5.69531 C75.0052,5.8151 74.849,5.875 74.6719,5.875 C74.4844,5.875 74.3255,5.8151 74.1953,5.69531 C74.0651,5.57552 74,5.39062 74,5.14062 M86.2969,14 L86.2969,9.51562 C86.2969,8.41146 85.8281,7.85938 84.8906,7.85938 C84.2448,7.85938 83.7682,8.04688 83.4609,8.42188 C83.1536,8.79688 83,9.375 83,10.1562 L83,14 L81.8594,14 L81.8594,9.51562 C81.8594,8.96354 81.7448,8.54948 81.5156,8.27344 C81.2865,7.9974 80.9271,7.85938 80.4375,7.85938 C79.7917,7.85938 79.3203,8.05729 79.0234,8.45312 C78.7266,8.84896 78.5781,9.49479 78.5781,10.3906 L78.5781,14 L77.4375,14 L77.4375,7.03125 L78.3594,7.03125 L78.5312,7.98438 L78.5938,7.98438 C78.7917,7.64062 79.0703,7.375 79.4297,7.1875 C79.7891,7 80.1927,6.90625 80.6406,6.90625 C81.7344,6.90625 82.4479,7.29688 82.7812,8.07812 L82.8438,8.07812 C83.0625,7.70312 83.3672,7.41406 83.7578,7.21094 C84.1484,7.00781 84.5885,6.90625 85.0781,6.90625 C85.8594,6.90625 86.4479,7.10938 86.8438,7.51562 C87.2396,7.92188 87.4375,8.57292 87.4375,9.46875 L87.4375,14 L86.2969,14 M93.875,14 L93.6562,13.0156 L93.6094,13.0156 C93.2552,13.4427 92.9062,13.7344 92.5625,13.8906 C92.2188,14.0469 91.7865,14.125 91.2656,14.125 C90.5781,14.125 90.0391,13.9453 89.6484,13.5859 C89.2578,13.2266 89.0625,12.7188 89.0625,12.0625 C89.0625,10.6458 90.1771,9.90625 92.4062,9.84375 L93.5938,9.79688 L93.5938,9.39062 C93.5938,8.85938 93.4792,8.46875 93.25,8.21875 C93.0208,7.96875 92.6562,7.84375 92.1562,7.84375 C91.7812,7.84375 91.4297,7.89844 91.1016,8.00781 C90.7734,8.11719 90.4688,8.23958 90.1875,8.375 L89.8281,7.51562 C90.1823,7.32812 90.5677,7.18229 90.9844,7.07812 C91.401,6.97396 91.8125,6.92188 92.2188,6.92188 C93.0625,6.92188 93.6875,7.10677 94.0938,7.47656 C94.5,7.84635 94.7031,8.4375 94.7031,9.25 L94.7031,14 L93.875,14 M91.5312,13.2031 C92.1667,13.2031 92.6667,13.0312 93.0312,12.6875 C93.3958,12.3438 93.5781,11.8542 93.5781,11.2188 L93.5781,10.5938 L92.5469,10.6406 C91.7552,10.6719 91.1745,10.7995 90.8047,11.0234 C90.4349,11.2474 90.25,11.599 90.25,12.0781 C90.25,12.4427 90.362,12.7214 90.5859,12.9141 C90.8099,13.1068 91.125,13.2031 91.5312,13.2031 M99.5156,13.1875 C100.214,13.1875 100.721,13 101.039,12.625 C101.357,12.25 101.516,11.6406 101.516,10.7969 L101.516,10.5312 C101.516,9.59375 101.357,8.91406 101.039,8.49219 C100.721,8.07031 100.203,7.85938 99.4844,7.85938 C98.901,7.85938 98.4505,8.09115 98.1328,8.55469 C97.8151,9.01823 97.6562,9.68229 97.6562,10.5469 C97.6562,11.401 97.8099,12.0547 98.1172,12.5078 C98.4245,12.9609 98.8906,13.1875 99.5156,13.1875 M101.516,13.9375 L101.547,13.0781 L101.5,13.0781 C101.031,13.776 100.312,14.125 99.3438,14.125 C98.4375,14.125 97.7318,13.8099 97.2266,13.1797 C96.7214,12.5495 96.4688,11.6667 96.4688,10.5312 C96.4688,9.40625 96.724,8.52083 97.2344,7.875 C97.7448,7.22917 98.4427,6.90625 99.3281,6.90625 C100.266,6.90625 100.995,7.25521 101.516,7.95312 L101.578,7.95312 L101.734,7.03125 L102.641,7.03125 L102.641,14.1094 C102.641,15.1094 102.388,15.862 101.883,16.3672 C101.378,16.8724 100.589,17.125 99.5156,17.125 C98.5052,17.125 97.6719,16.974 97.0156,16.6719 L97.0156,15.625 C97.6927,15.9896 98.5469,16.1719 99.5781,16.1719 C100.172,16.1719 100.643,15.9974 100.992,15.6484 C101.341,15.2995 101.516,14.8177 101.516,14.2031 L101.516,13.9375 M107.812,14.125 C106.76,14.125 105.938,13.8099 105.344,13.1797 C104.75,12.5495 104.453,11.6771 104.453,10.5625 C104.453,9.44792 104.729,8.5599 105.281,7.89844 C105.833,7.23698 106.583,6.90625 107.531,6.90625 C108.406,6.90625 109.104,7.1875 109.625,7.75 C110.146,8.3125 110.406,9.07812 110.406,10.0469 L110.406,10.7344 L105.641,10.7344 C105.661,11.526 105.862,12.1276 106.242,12.5391 C106.622,12.9505 107.161,13.1562 107.859,13.1562 C108.234,13.1562 108.589,13.1224 108.922,13.0547 C109.255,12.987 109.646,12.8594 110.094,12.6719 L110.094,13.6719 C109.708,13.8385 109.346,13.9557 109.008,14.0234 C108.669,14.0911 108.271,14.125 107.812,14.125 M107.516,7.84375 C106.974,7.84375 106.544,8.01823 106.227,8.36719 C105.909,8.71615 105.719,9.20312 105.656,9.82812 L109.203,9.82812 C109.193,9.18229 109.042,8.6901 108.75,8.35156 C108.458,8.01302 108.047,7.84375 107.516,7.84375 "/>
</g>

<g fill="none" stroke="#000000" stroke-opacity="1" stroke-width="1" stroke-linecap="square" stroke-linejoin="bevel" transform="matrix(2,0,0,2,776.1,64)"
font-family="Noto Sans" font-size="10" font-weight="400" font-style="normal" 
>
</g>

<g fill="none" stroke="#000000" stroke-opacity="1" stroke-width="1" stroke-linecap="square" stroke-linejoin="bevel" transform="matrix(2,0,0,2,776.1,64)"
font-family="Noto Sans" font-size="10" font-weight="400" font-style="normal" 
>
</g>

<g fill="none" stroke="#000000" stroke-opacity="1" stroke-width="1" stroke-linecap="square" stroke-linejoin="bevel" transform="matrix(2,0,0,2,0.0028,226)"
font-family="Noto Sans" font-size="10" font-weight="400" font-style="normal" 
>
</g>

<g fill="none" stroke="#000000" stroke-opacity="1" stroke-width="1" stroke-linecap="square" stroke-linejoin="bevel" transform="matrix(2,0,0,2,0.0028,226)"
font-family="Noto Sans" font-size="10" font-weight="400" font-style="normal" 
>
</g>

<g fill="none" stroke="#000000" stroke-opacity="1" stroke-width="1" stroke-linecap="square" stroke-linejoin="bevel" transform="matrix(2,0,0,2,0.0028,226)"
font-family="Noto Sans" font-size="10" font-weight="400" font-style="normal" 
>
</g>

<g fill="none" stroke="#000000" stroke-opacity="1" stroke-width="1" stroke-linecap="square" stroke-linejoin="round" transform="matrix(2,0,0,2,0.0028,226)"
font-family="Noto Sans" font-size="10" font-weight="400" font-style="normal" 
>
<ellipse cx="58.495" cy="-72" rx="57.9964" ry="17.5"/>
</g>

<g fill="none" stroke="#000000" stroke-opacity="1" stroke-width="1" stroke-linecap="square" stroke-linejoin="bevel" transform="matrix(2,0,0,2,0.0028,226)"
font-family="Noto Sans" font-size="10" font-weight="400" font-style="normal" 
>
</g>

<g fill="none" stroke="#000000" stroke-opacity="1" stroke-width="1" stroke-linecap="square" stroke-linejoin="bevel" transform="matrix(2,0,0,2,36.7116,64)"
font-family="Noto Sans" font-size="10" font-weight="400" font-style="normal" 
>
</g>

<g fill="none" stroke="#000000" stroke-opacity="1" stroke-width="1" stroke-linecap="square" stroke-linejoin="bevel" transform="matrix(2,0,0,2,36.7116,64)"
font-family="Noto Sans" font-size="10" font-weight="400" font-style="normal" 
>
</g>

<g fill="#000000" fill-opacity="1" stroke="#000000" stroke-opacity="1" stroke-width="1" stroke-linecap="square" stroke-linejoin="round" transform="matrix(2,0,0,2,36.7116,64)"
font-family="Noto Sans" font-size="10" font-weight="400" font-style="normal" 
>
<path vector-effect="none" fill-rule="nonzero" d="M4.70312,4.71875 L1.25,14 L0.125,14 L3.59375,4.71875 L4.70312,4.71875 M8.73438,14.125 C7.72396,14.125 6.9401,13.8177 6.38281,13.2031 C5.82552,12.5885 5.54688,11.7031 5.54688,10.5469 C5.54688,9.38021 5.82812,8.48177 6.39062,7.85156 C6.95312,7.22135 7.76042,6.90625 8.8125,6.90625 C9.14583,6.90625 9.47917,6.9401 9.8125,7.00781 C10.1458,7.07552 10.4219,7.16667 10.6406,7.28125 L10.2812,8.23438 C9.69792,8.01562 9.19792,7.90625 8.78125,7.90625 C8.08333,7.90625 7.56771,8.125 7.23438,8.5625 C6.90104,9 6.73438,9.66146 6.73438,10.5469 C6.73438,11.3802 6.90104,12.0208 7.23438,12.4688 C7.56771,12.9167 8.0625,13.1406 8.71875,13.1406 C9.33333,13.1406 9.9375,13.0052 10.5312,12.7344 L10.5312,13.75 C10.0417,14 9.44271,14.125 8.73438,14.125 M18.2188,10.5 C18.2188,11.6354 17.9323,12.5234 17.3594,13.1641 C16.7865,13.8047 15.9896,14.125 14.9688,14.125 C14.3438,14.125 13.7865,13.9792 13.2969,13.6875 C12.8073,13.3958 12.4323,12.974 12.1719,12.4219 C11.9115,11.8698 11.7812,11.2292 11.7812,10.5 C11.7812,9.36458 12.0651,8.48177 12.6328,7.85156 C13.2005,7.22135 13.9948,6.90625 15.0156,6.90625 C15.9948,6.90625 16.7734,7.22917 17.3516,7.875 C17.9297,8.52083 18.2188,9.39583 18.2188,10.5 M12.9688,10.5 C12.9688,11.375 13.1406,12.0417 13.4844,12.5 C13.8281,12.9583 14.3333,13.1875 15,13.1875 C15.6667,13.1875 16.1745,12.9583 16.5234,12.5 C16.8724,12.0417 17.0469,11.375 17.0469,10.5 C17.0469,9.625 16.8724,8.96615 16.5234,8.52344 C16.1745,8.08073 15.6615,7.85938 14.9844,7.85938 C13.6406,7.85938 12.9688,8.73958 12.9688,10.5 M21.1719,14 L20.0312,14 L20.0312,4.125 L21.1719,4.125 L21.1719,14 M29.4219,10.5 C29.4219,11.6354 29.1354,12.5234 28.5625,13.1641 C27.9896,13.8047 27.1927,14.125 26.1719,14.125 C25.5469,14.125 24.9896,13.9792 24.5,13.6875 C24.0104,13.3958 23.6354,12.974 23.375,12.4219 C23.1146,11.8698 22.9844,11.2292 22.9844,10.5 C22.9844,9.36458 23.2682,8.48177 23.8359,7.85156 C24.4036,7.22135 25.1979,6.90625 26.2188,6.90625 C27.1979,6.90625 27.9766,7.22917 28.5547,7.875 C29.1328,8.52083 29.4219,9.39583 29.4219,10.5 M24.1719,10.5 C24.1719,11.375 24.3438,12.0417 24.6875,12.5 C25.0312,12.9583 25.5365,13.1875 26.2031,13.1875 C26.8698,13.1875 27.3776,12.9583 27.7266,12.5 C28.0755,12.0417 28.25,11.375 28.25,10.5 C28.25,9.625 28.0755,8.96615 27.7266,8.52344 C27.3776,8.08073 26.8646,7.85938 26.1875,7.85938 C24.8438,7.85938 24.1719,8.73958 24.1719,10.5 M34.4844,6.90625 C34.7865,6.90625 35.0573,6.93229 35.2969,6.98438 L35.1562,8.03125 C34.8958,7.96875 34.6458,7.9375 34.4062,7.9375 C34.0417,7.9375 33.7005,8.03906 33.3828,8.24219 C33.0651,8.44531 32.8177,8.72656 32.6406,9.08594 C32.4635,9.44531 32.375,9.84375 32.375,10.2812 L32.375,14 L31.2344,14 L31.2344,7.03125 L32.1719,7.03125 L32.2969,8.3125 L32.3438,8.3125 C32.6146,7.84375 32.9323,7.49219 33.2969,7.25781 C33.6615,7.02344 34.0573,6.90625 34.4844,6.90625 M41.2812,16 L35.4531,16 L35.4531,15.1719 L41.2812,15.1719 L41.2812,16 M45.1562,14.125 C44.1458,14.125 43.362,13.8177 42.8047,13.2031 C42.2474,12.5885 41.9688,11.7031 41.9688,10.5469 C41.9688,9.38021 42.25,8.48177 42.8125,7.85156 C43.375,7.22135 44.1823,6.90625 45.2344,6.90625 C45.5677,6.90625 45.901,6.9401 46.2344,7.00781 C46.5677,7.07552 46.8438,7.16667 47.0625,7.28125 L46.7031,8.23438 C46.1198,8.01562 45.6198,7.90625 45.2031,7.90625 C44.5052,7.90625 43.9896,8.125 43.6562,8.5625 C43.3229,9 43.1562,9.66146 43.1562,10.5469 C43.1562,11.3802 43.3229,12.0208 43.6562,12.4688 C43.9896,12.9167 44.4844,13.1406 45.1406,13.1406 C45.7552,13.1406 46.3594,13.0052 46.9531,12.7344 L46.9531,13.75 C46.4635,14 45.8646,14.125 45.1562,14.125 M53.3438,14 L53.3438,9.54688 C53.3438,8.97396 53.2161,8.54948 52.9609,8.27344 C52.7057,7.9974 52.3125,7.85938 51.7812,7.85938 C51.0729,7.85938 50.5547,8.05729 50.2266,8.45312 C49.8984,8.84896 49.7344,9.5 49.7344,10.4062 L49.7344,14 L48.5938,14 L48.5938,4.125 L49.7344,4.125 L49.7344,7.01562 C49.7344,7.40104 49.7135,7.72917 49.6719,8 L49.75,8 C49.9583,7.65625 50.2526,7.39062 50.6328,7.20312 C51.013,7.01562 51.4427,6.92188 51.9219,6.92188 C52.7656,6.92188 53.401,7.1224 53.8281,7.52344 C54.2552,7.92448 54.4688,8.57292 54.4688,9.46875 L54.4688,14 L53.3438,14 M62.6719,10.5 C62.6719,11.6354 62.3854,12.5234 61.8125,13.1641 C61.2396,13.8047 60.4427,14.125 59.4219,14.125 C58.7969,14.125 58.2396,13.9792 57.75,13.6875 C57.2604,13.3958 56.8854,12.974 56.625,12.4219 C56.3646,11.8698 56.2344,11.2292 56.2344,10.5 C56.2344,9.36458 56.5182,8.48177 57.0859,7.85156 C57.6536,7.22135 58.4479,6.90625 59.4688,6.90625 C60.4479,6.90625 61.2266,7.22917 61.8047,7.875 C62.3828,8.52083 62.6719,9.39583 62.6719,10.5 M57.4219,10.5 C57.4219,11.375 57.5938,12.0417 57.9375,12.5 C58.2812,12.9583 58.7865,13.1875 59.4531,13.1875 C60.1198,13.1875 60.6276,12.9583 60.9766,12.5 C61.3255,12.0417 61.5,11.375 61.5,10.5 C61.5,9.625 61.3255,8.96615 60.9766,8.52344 C60.6276,8.08073 60.1146,7.85938 59.4375,7.85938 C58.0938,7.85938 57.4219,8.73958 57.4219,10.5 M65.625,14 L64.4844,14 L64.4844,7.03125 L65.625,7.03125 L65.625,14 M64.3906,5.14062 C64.3906,4.89062 64.4557,4.70833 64.5859,4.59375 C64.7161,4.47917 64.875,4.42188 65.0625,4.42188 C65.2396,4.42188 65.3958,4.47917 65.5312,4.59375 C65.6667,4.70833 65.7344,4.89062 65.7344,5.14062 C65.7344,5.39062 65.6667,5.57552 65.5312,5.69531 C65.3958,5.8151 65.2396,5.875 65.0625,5.875 C64.875,5.875 64.7161,5.8151 64.5859,5.69531 C64.4557,5.57552 64.3906,5.39062 64.3906,5.14062 M70.625,14.125 C69.6146,14.125 68.8307,13.8177 68.2734,13.2031 C67.7161,12.5885 67.4375,11.7031 67.4375,10.5469 C67.4375,9.38021 67.7188,8.48177 68.2812,7.85156 C68.8438,7.22135 69.651,6.90625 70.7031,6.90625 C71.0365,6.90625 71.3698,6.9401 71.7031,7.00781 C72.0365,7.07552 72.3125,7.16667 72.5312,7.28125 L72.1719,8.23438 C71.5885,8.01562 71.0885,7.90625 70.6719,7.90625 C69.974,7.90625 69.4583,8.125 69.125,8.5625 C68.7917,9 68.625,9.66146 68.625,10.5469 C68.625,11.3802 68.7917,12.0208 69.125,12.4688 C69.4583,12.9167 69.9531,13.1406 70.6094,13.1406 C71.224,13.1406 71.8281,13.0052 72.4219,12.7344 L72.4219,13.75 C71.9323,14 71.3333,14.125 70.625,14.125 M77.0312,14.125 C75.9792,14.125 75.1562,13.8099 74.5625,13.1797 C73.9688,12.5495 73.6719,11.6771 73.6719,10.5625 C73.6719,9.44792 73.9479,8.5599 74.5,7.89844 C75.0521,7.23698 75.8021,6.90625 76.75,6.90625 C77.625,6.90625 78.3229,7.1875 78.8438,7.75 C79.3646,8.3125 79.625,9.07812 79.625,10.0469 L79.625,10.7344 L74.8594,10.7344 C74.8802,11.526 75.0807,12.1276 75.4609,12.5391 C75.8411,12.9505 76.3802,13.1562 77.0781,13.1562 C77.4531,13.1562 77.8073,13.1224 78.1406,13.0547 C78.474,12.987 78.8646,12.8594 79.3125,12.6719 L79.3125,13.6719 C78.9271,13.8385 78.5651,13.9557 78.2266,14.0234 C77.888,14.0911 77.4896,14.125 77.0312,14.125 M76.7344,7.84375 C76.1927,7.84375 75.763,8.01823 75.4453,8.36719 C75.1276,8.71615 74.9375,9.20312 74.875,9.82812 L78.4219,9.82812 C78.4115,9.18229 78.2604,8.6901 77.9688,8.35156 C77.6771,8.01302 77.2656,7.84375 76.7344,7.84375 "/>
</g>

<g fill="none" stroke="#000000" stroke-opacity="1" stroke-width="1" stroke-linecap="square" stroke-linejoin="bevel" transform="matrix(2,0,0,2,36.7116,64)"
font-family="Noto Sans" font-size="10" font-weight="400" font-style="normal" 
>
</g>

<g fill="none" stroke="#000000" stroke-opacity="1" stroke-width="1" stroke-linecap="square" stroke-linejoin="bevel" transform="matrix(2,0,0,2,36.7116,64)"
font-family="Noto Sans" font-size="10" font-weight="400" font-style="normal" 
>
</g>

<g fill="none" stroke="#000000" stroke-opacity="1" stroke-width="1" stroke-linecap="square" stroke-linejoin="bevel" transform="matrix(2,0,0,2,0.0028,226)"
font-family="Noto Sans" font-size="10" font-weight="400" font-style="normal" 
>
</g>

<g fill="none" stroke="#000000" stroke-opacity="1" stroke-width="1" stroke-linecap="square" stroke-linejoin="bevel" transform="matrix(2,0,0,2,0.0028,226)"
font-family="Noto Sans" font-size="10" font-weight="400" font-style="normal" 
>
</g>

<g fill="none" stroke="#000000" stroke-opacity="1" stroke-width="1" stroke-linecap="square" stroke-linejoin="bevel" transform="matrix(2,0,0,2,0.0028,226)"
font-family="Noto Sans" font-size="10" font-weight="400" font-style="normal" 
>
</g>

<g fill="none" stroke="#000000" stroke-opacity="1" stroke-width="1" stroke-linecap="square" stroke-linejoin="round" transform="matrix(2,0,0,2,0.0028,226)"
font-family="Noto Sans" font-size="10" font-weight="400" font-style="normal" 
>
<path vector-effect="none" fill-rule="evenodd" d="M486.94,-36.081 C492.93,-38.922 498.96,-41.937 504.58,-45 C509.19,-47.512 513.96,-50.358 518.55,-53.237 "/>
</g>

<g fill="none" stroke="#000000" stroke-opacity="1" stroke-width="1" stroke-linecap="square" stroke-linejoin="bevel" transform="matrix(2,0,0,2,0.0028,226)"
font-family="Noto Sans" font-size="10" font-weight="400" font-style="normal" 
>
</g>

<g fill="none" stroke="#000000" stroke-opacity="1" stroke-width="1" stroke-linecap="square" stroke-linejoin="bevel" transform="matrix(2,0,0,2,0.0028,226)"
font-family="Noto Sans" font-size="10" font-weight="400" font-style="normal" 
>
</g>

<g fill="#000000" fill-opacity="1" stroke="#000000" stroke-opacity="1" stroke-width="1" stroke-linecap="square" stroke-linejoin="round" transform="matrix(2,0,0,2,0.0028,226)"
font-family="Noto Sans" font-size="10" font-weight="400" font-style="normal" 
>
<path vector-effect="none" fill-rule="evenodd" d="M518.55,-53.237 L520.474,-50.2515 L527.08,-58.733 L516.626,-56.2225 L518.55,-53.237"/>
</g>

<g fill="none" stroke="#000000" stroke-opacity="1" stroke-width="1" stroke-linecap="square" stroke-linejoin="bevel" transform="matrix(2,0,0,2,0.0028,226)"
font-family="Noto Sans" font-size="10" font-weight="400" font-style="normal" 
>
</g>

<g fill="none" stroke="#000000" stroke-opacity="1" stroke-width="1" stroke-linecap="square" stroke-linejoin="bevel" transform="matrix(2,0,0,2,0.0028,226)"
font-family="Noto Sans" font-size="10" font-weight="400" font-style="normal" 
>
</g>

<g fill="none" stroke="#000000" stroke-opacity="1" stroke-width="1" stroke-linecap="square" stroke-linejoin="bevel" transform="matrix(2,0,0,2,0.0028,226)"
font-family="Noto Sans" font-size="10" font-weight="400" font-style="normal" 
>
</g>

<g fill="none" stroke="#000000" stroke-opacity="1" stroke-width="1" stroke-linecap="square" stroke-linejoin="bevel" transform="matrix(2,0,0,2,0.0028,226)"
font-family="Noto Sans" font-size="10" font-weight="400" font-style="normal" 
>
</g>

<g fill="none" stroke="#000000" stroke-opacity="1" stroke-width="1" stroke-linecap="square" stroke-linejoin="round" transform="matrix(2,0,0,2,0.0028,226)"
font-family="Noto Sans" font-size="10" font-weight="400" font-style="normal" 
>
<path vector-effect="none" fill-rule="evenodd" d="M500.73,-72 C503.19,-72 505.63,-72 508.04,-72 "/>
</g>

<g fill="none" stroke="#000000" stroke-opacity="1" stroke-width="1" stroke-linecap="square" stroke-linejoin="bevel" transform="matrix(2,0,0,2,0.0028,226)"
font-family="Noto Sans" font-size="10" font-weight="400" font-style="normal" 
>
</g>

<g fill="none" stroke="#000000" stroke-opacity="1" stroke-width="1" stroke-linecap="square" stroke-linejoin="bevel" transform="matrix(2,0,0,2,0.0028,226)"
font-family="Noto Sans" font-size="10" font-weight="400" font-style="normal" 
>
</g>

<g fill="#000000" fill-opacity="1" stroke="#000000" stroke-opacity="1" stroke-width="1" stroke-linecap="square" stroke-linejoin="round" transform="matrix(2,0,0,2,0.0028,226)"
font-family="Noto Sans" font-size="10" font-weight="400" font-style="normal" 
>
<path vector-effect="none" fill-rule="evenodd" d="M508.04,-72 L508.04,-68.43 L518.24,-72 L508.04,-75.57 L508.04,-72"/>
</g>

<g fill="none" stroke="#000000" stroke-opacity="1" stroke-width="1" stroke-linecap="square" stroke-linejoin="bevel" transform="matrix(2,0,0,2,0.0028,226)"
font-family="Noto Sans" font-size="10" font-weight="400" font-style="normal" 
>
</g>

<g fill="none" stroke="#000000" stroke-opacity="1" stroke-width="1" stroke-linecap="square" stroke-linejoin="bevel" transform="matrix(2,0,0,2,0.0028,226)"
font-family="Noto Sans" font-size="10" font-weight="400" font-style="normal" 
>
</g>

<g fill="none" stroke="#000000" stroke-opacity="1" stroke-width="1" stroke-linecap="square" stroke-linejoin="bevel" transform="matrix(2,0,0,2,0.0028,226)"
font-family="Noto Sans" font-size="10" font-weight="400" font-style="normal" 
>
</g>

<g fill="none" stroke="#000000" stroke-opacity="1" stroke-width="1" stroke-linecap="square" stroke-linejoin="bevel" transform="matrix(2,0,0,2,0.0028,226)"
font-family="Noto Sans" font-size="10" font-weight="400" font-style="normal" 
>
</g>

<g fill="none" stroke="#000000" stroke-opacity="1" stroke-width="1" stroke-linecap="square" stroke-linejoin="round" transform="matrix(2,0,0,2,0.0028,226)"
font-family="Noto Sans" font-size="10" font-weight="400" font-style="normal" 
>
<path vector-effect="none" fill-rule="evenodd" d="M589.58,-100.37 C540.34,-105.86 454.61,-111.93 382.58,-99 C372.43,-97.178 361.85,-94.034 351.99,-90.521 "/>
</g>

<g fill="none" stroke="#000000" stroke-opacity="1" stroke-width="1" stroke-linecap="square" stroke-linejoin="bevel" transform="matrix(2,0,0,2,0.0028,226)"
font-family="Noto Sans" font-size="10" font-weight="400" font-style="normal" 
>
</g>

<g fill="none" stroke="#000000" stroke-opacity="1" stroke-width="1" stroke-linecap="square" stroke-linejoin="bevel" transform="matrix(2,0,0,2,0.0028,226)"
font-family="Noto Sans" font-size="10" font-weight="400" font-style="normal" 
>
</g>

<g fill="#000000" fill-opacity="1" stroke="#000000" stroke-opacity="1" stroke-width="1" stroke-linecap="square" stroke-linejoin="round" transform="matrix(2,0,0,2,0.0028,226)"
font-family="Noto Sans" font-size="10" font-weight="400" font-style="normal" 
>
<path vector-effect="none" fill-rule="evenodd" d="M351.99,-90.521 L350.73,-93.867 L342.43,-86.92 L353.25,-87.175 L351.99,-90.521"/>
</g>

<g fill="none" stroke="#000000" stroke-opacity="1" stroke-width="1" stroke-linecap="square" stroke-linejoin="bevel" transform="matrix(2,0,0,2,0.0028,226)"
font-family="Noto Sans" font-size="10" font-weight="400" font-style="normal" 
>
</g>

<g fill="none" stroke="#000000" stroke-opacity="1" stroke-width="1" stroke-linecap="square" stroke-linejoin="bevel" transform="matrix(2,0,0,2,0.0028,226)"
font-family="Noto Sans" font-size="10" font-weight="400" font-style="normal" 
>
</g>

<g fill="none" stroke="#000000" stroke-opacity="1" stroke-width="1" stroke-linecap="square" stroke-linejoin="bevel" transform="matrix(2,0,0,2,0.0028,226)"
font-family="Noto Sans" font-size="10" font-weight="400" font-style="normal" 
>
</g>

<g fill="none" stroke="#000000" stroke-opacity="1" stroke-width="1" stroke-linecap="square" stroke-linejoin="bevel" transform="matrix(2,0,0,2,0.0028,226)"
font-family="Noto Sans" font-size="10" font-weight="400" font-style="normal" 
>
</g>

<g fill="none" stroke="#000000" stroke-opacity="1" stroke-width="1" stroke-linecap="square" stroke-linejoin="round" transform="matrix(2,0,0,2,0.0028,226)"
font-family="Noto Sans" font-size="10" font-weight="400" font-style="normal" 
>
<path vector-effect="none" fill-rule="evenodd" d="M573.55,-79.151 C575.64,-79.741 577.79,-80.348 579.98,-80.965 "/>
</g>

<g fill="none" stroke="#000000" stroke-opacity="1" stroke-width="1" stroke-linecap="square" stroke-linejoin="bevel" transform="matrix(2,0,0,2,0.0028,226)"
font-family="Noto Sans" font-size="10" font-weight="400" font-style="normal" 
>
</g>

<g fill="none" stroke="#000000" stroke-opacity="1" stroke-width="1" stroke-linecap="square" stroke-linejoin="bevel" transform="matrix(2,0,0,2,0.0028,226)"
font-family="Noto Sans" font-size="10" font-weight="400" font-style="normal" 
>
</g>

<g fill="#000000" fill-opacity="1" stroke="#000000" stroke-opacity="1" stroke-width="1" stroke-linecap="square" stroke-linejoin="round" transform="matrix(2,0,0,2,0.0028,226)"
font-family="Noto Sans" font-size="10" font-weight="400" font-style="normal" 
>
<path vector-effect="none" fill-rule="evenodd" d="M579.98,-80.965 L580.942,-77.549 L589.74,-83.714 L579.018,-84.381 L579.98,-80.965"/>
</g>

<g fill="none" stroke="#000000" stroke-opacity="1" stroke-width="1" stroke-linecap="square" stroke-linejoin="bevel" transform="matrix(2,0,0,2,0.0028,226)"
font-family="Noto Sans" font-size="10" font-weight="400" font-style="normal" 
>
</g>

<g fill="none" stroke="#000000" stroke-opacity="1" stroke-width="1" stroke-linecap="square" stroke-linejoin="bevel" transform="matrix(2,0,0,2,0.0028,226)"
font-family="Noto Sans" font-size="10" font-weight="400" font-style="normal" 
>
</g>

<g fill="none" stroke="#000000" stroke-opacity="1" stroke-width="1" stroke-linecap="square" stroke-linejoin="bevel" transform="matrix(2,0,0,2,0.0028,226)"
font-family="Noto Sans" font-size="10" font-weight="400" font-style="normal" 
>
</g>

<g fill="none" stroke="#000000" stroke-opacity="1" stroke-width="1" stroke-linecap="square" stroke-linejoin="bevel" transform="matrix(2,0,0,2,0.0028,226)"
font-family="Noto Sans" font-size="10" font-weight="400" font-style="normal" 
>
</g>

<g fill="none" stroke="#000000" stroke-opacity="1" stroke-width="1" stroke-linecap="square" stroke-linejoin="round" transform="matrix(2,0,0,2,0.0028,226)"
font-family="Noto Sans" font-size="10" font-weight="400" font-style="normal" 
>
<path vector-effect="none" fill-rule="evenodd" d="M368.8,-72 C371.26,-72 373.73,-72 376.19,-72 "/>
</g>

<g fill="none" stroke="#000000" stroke-opacity="1" stroke-width="1" stroke-linecap="square" stroke-linejoin="bevel" transform="matrix(2,0,0,2,0.0028,226)"
font-family="Noto Sans" font-size="10" font-weight="400" font-style="normal" 
>
</g>

<g fill="none" stroke="#000000" stroke-opacity="1" stroke-width="1" stroke-linecap="square" stroke-linejoin="bevel" transform="matrix(2,0,0,2,0.0028,226)"
font-family="Noto Sans" font-size="10" font-weight="400" font-style="normal" 
>
</g>

<g fill="#000000" fill-opacity="1" stroke="#000000" stroke-opacity="1" stroke-width="1" stroke-linecap="square" stroke-linejoin="round" transform="matrix(2,0,0,2,0.0028,226)"
font-family="Noto Sans" font-size="10" font-weight="400" font-style="normal" 
>
<path vector-effect="none" fill-rule="evenodd" d="M376.19,-72 L376.19,-68.458 L386.31,-72 L376.19,-75.542 L376.19,-72"/>
</g>

<g fill="none" stroke="#000000" stroke-opacity="1" stroke-width="1" stroke-linecap="square" stroke-linejoin="bevel" transform="matrix(2,0,0,2,0.0028,226)"
font-family="Noto Sans" font-size="10" font-weight="400" font-style="normal" 
>
</g>

<g fill="none" stroke="#000000" stroke-opacity="1" stroke-width="1" stroke-linecap="square" stroke-linejoin="bevel" transform="matrix(2,0,0,2,0.0028,226)"
font-family="Noto Sans" font-size="10" font-weight="400" font-style="normal" 
>
</g>

<g fill="none" stroke="#000000" stroke-opacity="1" stroke-width="1" stroke-linecap="square" stroke-linejoin="bevel" transform="matrix(2,0,0,2,0.0028,226)"
font-family="Noto Sans" font-size="10" font-weight="400" font-style="normal" 
>
</g>

<g fill="none" stroke="#000000" stroke-opacity="1" stroke-width="1" stroke-linecap="square" stroke-linejoin="bevel" transform="matrix(2,0,0,2,0.0028,226)"
font-family="Noto Sans" font-size="10" font-weight="400" font-style="normal" 
>
</g>

<g fill="none" stroke="#000000" stroke-opacity="1" stroke-width="1" stroke-linecap="square" stroke-linejoin="round" transform="matrix(2,0,0,2,0.0028,226)"
font-family="Noto Sans" font-size="10" font-weight="400" font-style="normal" 
>
<path vector-effect="none" fill-rule="evenodd" d="M235.06,-72 C236.19,-72 237.33,-72 238.47,-72 "/>
</g>

<g fill="none" stroke="#000000" stroke-opacity="1" stroke-width="1" stroke-linecap="square" stroke-linejoin="bevel" transform="matrix(2,0,0,2,0.0028,226)"
font-family="Noto Sans" font-size="10" font-weight="400" font-style="normal" 
>
</g>

<g fill="none" stroke="#000000" stroke-opacity="1" stroke-width="1" stroke-linecap="square" stroke-linejoin="bevel" transform="matrix(2,0,0,2,0.0028,226)"
font-family="Noto Sans" font-size="10" font-weight="400" font-style="normal" 
>
</g>

<g fill="#000000" fill-opacity="1" stroke="#000000" stroke-opacity="1" stroke-width="1" stroke-linecap="square" stroke-linejoin="round" transform="matrix(2,0,0,2,0.0028,226)"
font-family="Noto Sans" font-size="10" font-weight="400" font-style="normal" 
>
<path vector-effect="none" fill-rule="evenodd" d="M238.47,-72 L238.47,-68.3915 L248.78,-72 L238.47,-75.6085 L238.47,-72"/>
</g>

<g fill="none" stroke="#000000" stroke-opacity="1" stroke-width="1" stroke-linecap="square" stroke-linejoin="bevel" transform="matrix(2,0,0,2,0.0028,226)"
font-family="Noto Sans" font-size="10" font-weight="400" font-style="normal" 
>
</g>

<g fill="none" stroke="#000000" stroke-opacity="1" stroke-width="1" stroke-linecap="square" stroke-linejoin="bevel" transform="matrix(2,0,0,2,0.0028,226)"
font-family="Noto Sans" font-size="10" font-weight="400" font-style="normal" 
>
</g>

<g fill="none" stroke="#000000" stroke-opacity="1" stroke-width="1" stroke-linecap="square" stroke-linejoin="bevel" transform="matrix(2,0,0,2,0.0028,226)"
font-family="Noto Sans" font-size="10" font-weight="400" font-style="normal" 
>
</g>

<g fill="none" stroke="#000000" stroke-opacity="1" stroke-width="1" stroke-linecap="square" stroke-linejoin="bevel" transform="matrix(2,0,0,2,0.0028,226)"
font-family="Noto Sans" font-size="10" font-weight="400" font-style="normal" 
>
</g>

<g fill="none" stroke="#000000" stroke-opacity="1" stroke-width="1" stroke-linecap="square" stroke-linejoin="round" transform="matrix(2,0,0,2,0.0028,226)"
font-family="Noto Sans" font-size="10" font-weight="400" font-style="normal" 
>
<path vector-effect="none" fill-rule="evenodd" d="M345.02,-57.671 C358.38,-52.237 373.93,-45.918 388.62,-39.941 "/>
</g>

<g fill="none" stroke="#000000" stroke-opacity="1" stroke-width="1" stroke-linecap="square" stroke-linejoin="bevel" transform="matrix(2,0,0,2,0.0028,226)"
font-family="Noto Sans" font-size="10" font-weight="400" font-style="normal" 
>
</g>

<g fill="none" stroke="#000000" stroke-opacity="1" stroke-width="1" stroke-linecap="square" stroke-linejoin="bevel" transform="matrix(2,0,0,2,0.0028,226)"
font-family="Noto Sans" font-size="10" font-weight="400" font-style="normal" 
>
</g>

<g fill="#000000" fill-opacity="1" stroke="#000000" stroke-opacity="1" stroke-width="1" stroke-linecap="square" stroke-linejoin="round" transform="matrix(2,0,0,2,0.0028,226)"
font-family="Noto Sans" font-size="10" font-weight="400" font-style="normal" 
>
<path vector-effect="none" fill-rule="evenodd" d="M388.62,-39.941 L387.267,-36.6125 L398.13,-36.076 L389.973,-43.2695 L388.62,-39.941"/>
</g>

<g fill="none" stroke="#000000" stroke-opacity="1" stroke-width="1" stroke-linecap="square" stroke-linejoin="bevel" transform="matrix(2,0,0,2,0.0028,226)"
font-family="Noto Sans" font-size="10" font-weight="400" font-style="normal" 
>
</g>

<g fill="none" stroke="#000000" stroke-opacity="1" stroke-width="1" stroke-linecap="square" stroke-linejoin="bevel" transform="matrix(2,0,0,2,0.0028,226)"
font-family="Noto Sans" font-size="10" font-weight="400" font-style="normal" 
>
</g>

<g fill="none" stroke="#000000" stroke-opacity="1" stroke-width="1" stroke-linecap="square" stroke-linejoin="bevel" transform="matrix(2,0,0,2,0.0028,226)"
font-family="Noto Sans" font-size="10" font-weight="400" font-style="normal" 
>
</g>

<g fill="none" stroke="#000000" stroke-opacity="1" stroke-width="1" stroke-linecap="square" stroke-linejoin="bevel" transform="matrix(2,0,0,2,0.0028,226)"
font-family="Noto Sans" font-size="10" font-weight="400" font-style="normal" 
>
</g>

<g fill="none" stroke="#000000" stroke-opacity="1" stroke-width="1" stroke-linecap="square" stroke-linejoin="round" transform="matrix(2,0,0,2,0.0028,226)"
font-family="Noto Sans" font-size="10" font-weight="400" font-style="normal" 
>
<path vector-effect="none" fill-rule="evenodd" d="M117.16,-72 C118.3,-72 119.45,-72 120.6,-72 "/>
</g>

<g fill="none" stroke="#000000" stroke-opacity="1" stroke-width="1" stroke-linecap="square" stroke-linejoin="bevel" transform="matrix(2,0,0,2,0.0028,226)"
font-family="Noto Sans" font-size="10" font-weight="400" font-style="normal" 
>
</g>

<g fill="none" stroke="#000000" stroke-opacity="1" stroke-width="1" stroke-linecap="square" stroke-linejoin="bevel" transform="matrix(2,0,0,2,0.0028,226)"
font-family="Noto Sans" font-size="10" font-weight="400" font-style="normal" 
>
</g>

<g fill="#000000" fill-opacity="1" stroke="#000000" stroke-opacity="1" stroke-width="1" stroke-linecap="square" stroke-linejoin="round" transform="matrix(2,0,0,2,0.0028,226)"
font-family="Noto Sans" font-size="10" font-weight="400" font-style="normal" 
>
<path vector-effect="none" fill-rule="evenodd" d="M120.6,-72 L120.6,-68.3915 L130.91,-72 L120.6,-75.6085 L120.6,-72"/>
</g>

<g fill="none" stroke="#000000" stroke-opacity="1" stroke-width="1" stroke-linecap="square" stroke-linejoin="bevel" transform="matrix(2,0,0,2,0.0028,226)"
font-family="Noto Sans" font-size="10" font-weight="400" font-style="normal" 
>
</g>

<g fill="none" stroke="#000000" stroke-opacity="1" stroke-width="1" stroke-linecap="square" stroke-linejoin="bevel" transform="matrix(1,0,0,1,0,0)"
font-family="Noto Sans" font-size="10" font-weight="400" font-style="normal" 
>
</g>
</g>
</svg>
